<?xml version="1.0" encoding="utf-8"?>
<!-- Generator: Adobe Illustrator 23.0.3, SVG Export Plug-In . SVG Version: 6.00 Build 0)  -->
<svg version="1.0" id="Ebene_1" xmlns="http://www.w3.org/2000/svg" xmlns:xlink="http://www.w3.org/1999/xlink" x="0px" y="0px"
	 viewBox="0 0 504 504" style="enable-background:new 0 0 504 504;" xml:space="preserve">
<style type="text/css">
	.st0{fill:#3c4448;}
</style>
<g>
	<g>
		<path class="st0" d="M503.8,58.3C501.4,25.6,474.3,0,441,0H63l-4.7,0.2C25.6,2.6,0,29.7,0,63v378l0.2,4.7C2.6,478.4,29.7,504,63,504h378
			l4.7-0.2c32.7-2.4,58.3-29.5,58.3-62.8V63L503.8,58.3z M441,441H63V63h378V441z M379.3,200.8l-44.6-44.6L217.1,273.8L169.3,226
			l-44.6,44.6l92.4,92.4L379.3,200.8z"/>
	</g>
</g>
</svg>
