<?xml version="1.0" encoding="utf-8"?>
<!-- Generator: Adobe Illustrator 23.1.1, SVG Export Plug-In . SVG Version: 6.00 Build 0)  -->
<svg version="1.1" id="Ebene_1" xmlns="http://www.w3.org/2000/svg" xmlns:xlink="http://www.w3.org/1999/xlink" x="0px" y="0px"
	 viewBox="0 0 504 504" style="enable-background:new 0 0 504 504;" xml:space="preserve">
<g>
	<path d="M48,264c0-48.1,18.7-93.3,52.7-127.3c22.4-22.4,49.6-38.1,79.3-46.3V65.7C90.5,87.3,24,167.9,24,264
		c0,100.4,72.5,183.8,168,200.8v-24.4c-34.4-6.9-65.9-23.8-91.3-49.1C66.7,357.3,48,312.1,48,264z"/>
	<path d="M443.1,300H432v-61.4c34.1-8.1,60-50,60-100.6c0-56.3-32.2-102-72-102c-39.8,0-72,45.7-72,102c0,50.5,25.9,92.5,60,100.6
		V300h-11.1c-13.7,0-24.9,11.1-24.9,24.9v118.2c0,13.7,11.1,24.9,24.9,24.9h46.2c13.7,0,24.9-11.1,24.9-24.9V324.9
		C468,311.1,456.9,300,443.1,300z M388.7,196.3C378.1,181.3,372,160,372,138s6.1-43.3,16.7-58.3C393.9,72.4,404.9,60,420,60
		s26.1,12.4,31.3,19.7C461.9,94.7,468,116,468,138s-6.1,43.3-16.7,58.3c-5.2,7.4-16.2,19.7-31.3,19.7S393.9,203.6,388.7,196.3z
		 M444,443.1c0,0.5-0.4,0.9-0.9,0.9h-46.2c-0.5,0-0.9-0.4-0.9-0.9V324.9c0-0.5,0.4-0.9,0.9-0.9h46.2c0.5,0,0.9,0.4,0.9,0.9V443.1z"
		/>
	<path d="M312,36c-6.6,0-12,5.4-12,12v120c0,14.8-3.2,27-9.3,35.4c-6.1,8.5-14.9,12.6-26.7,12.6c-11.8,0-20.6-4.1-26.7-12.6
		c-6.1-8.4-9.3-20.6-9.3-35.4V48c0-6.6-5.4-12-12-12s-12,5.4-12,12v120c0,19.8,4.8,36.9,13.9,49.5c8.4,11.6,20.1,18.9,34.1,21.5V300
		h-11.1c-13.7,0-24.9,11.1-24.9,24.9v118.2c0,13.7,11.1,24.9,24.9,24.9h46.2c13.7,0,24.9-11.1,24.9-24.9V324.9
		c0-13.7-11.1-24.9-24.9-24.9H276v-61.1c14.1-2.6,25.8-9.9,34.1-21.5c9.1-12.5,13.9-29.6,13.9-49.5V48C324,41.4,318.6,36,312,36z
		 M287.1,324c0.5,0,0.9,0.4,0.9,0.9v118.2c0,0.5-0.4,0.9-0.9,0.9h-46.2c-0.5,0-0.9-0.4-0.9-0.9V324.9c0-0.5,0.4-0.9,0.9-0.9H287.1z"
		/>
	<path d="M264,192c6.6,0,12-5.4,12-12V48c0-6.6-5.4-12-12-12s-12,5.4-12,12v132C252,186.6,257.4,192,264,192z"/>
	<path d="M132,264c0-35.5,19.3-66.5,48-83.1V168v-14c-42.4,18.5-72,60.8-72,110c0,53.7,35.3,99.2,84,114.5V353
		C156.9,338.7,132,304.2,132,264z"/>
</g>
</svg>
