<?xml version="1.0" encoding="utf-8"?>
<!-- Generator: Adobe Illustrator 23.0.3, SVG Export Plug-In . SVG Version: 6.00 Build 0)  -->
<svg version="1.1" id="Ebene_1" xmlns="http://www.w3.org/2000/svg" xmlns:xlink="http://www.w3.org/1999/xlink" x="0px" y="0px"
	 viewBox="0 0 504 504" style="enable-background:new 0 0 504 504;" xml:space="preserve">
<g>
	<g>
		<path d="M360.3,228c-69.6,0-126,56.4-126,126s56.4,126,126,126s126-56.4,126-126S429.9,228,360.3,228z M360.3,456
			c-56.2,0-102-45.8-102-102s45.8-102,102-102s102,45.8,102,102S416.6,456,360.3,456z M213.1,434.8c-11.7-8.5-21.9-21.4-29.6-37.5
			c-9.7-20.1-14.8-43.8-14.8-68.5c0-20.5,3.6-40.7,10.4-58.4c6.3-16.5,15.4-30.7,26.1-41c12.2-11.8,19.3-28.1,19.3-44.7V180h41.2
			v4.6c0,15.2,5.9,30.1,16.2,41.5c7.2-4.4,14.7-8.2,22.5-11.3c-0.9-0.9-1.8-1.9-2.8-2.8c-7.5-7.2-11.9-17-11.9-27.4v-28.9
			c0-8.7,3.1-17.1,8.4-24c9-11.6,14.2-26.3,13.9-42.2C311.2,53.3,281.3,24,245.1,24c-0.1,0-0.2,0-0.3,0c-36.8,0.2-66.6,30-66.6,66.9
			c0,15.6,5.3,29.9,14.2,41.2c5.3,6.8,8.1,15.3,8.1,23.9v28.6c0,10.4-4.4,20.2-11.9,27.4c-10.9,10.5-20.3,23.9-27.5,39.5
			c-2.2-2.6-4.6-5.1-7-7.5c-6.5-6.3-10.3-14.8-10.3-23.9V195c0-7.6,2.7-14.9,7.3-20.9c7.8-10.1,12.4-22.9,12.1-36.7
			c-0.6-31.5-26.7-57-58.2-57c-0.1,0-0.2,0-0.3,0c-32,0.1-58,26.2-58,58.2c0,13.5,4.6,26,12.4,35.9c4.6,5.9,7,13.3,7,20.8v24.9
			c0,9-3.8,17.6-10.3,23.9c-23,22.1-38.2,59.4-38.2,101.6c0,50.9,22,94.5,53.3,113.2H139c12.7-7.6,23.8-19.3,32.6-33.9
			c9.5,14.4,21.2,26.1,34.3,33.9H253c-7.2-7.4-13.6-15.5-19.1-24H213.1z M244.9,48l0.2,0c23.2,0,42.4,18.8,42.9,42
			c0.2,9.9-2.9,19.3-8.9,27.1c-8.6,11.2-13.4,24.9-13.4,38.6v0.3h-41.2c0-14.1-4.7-27.9-13.2-38.7c-6-7.6-9.1-16.7-9.1-26.4
			C202.2,67.3,221.4,48.1,244.9,48z M104.8,104.4l0.2,0c18.5,0,33.8,15,34.2,33.5c0.2,7.9-2.3,15.4-7.1,21.6
			c-7.9,10.3-12.3,22.9-12.3,35.5v1H90.2v-0.7c0-13-4.3-25.6-12.1-35.6c-4.8-6.1-7.3-13.4-7.3-21.1C70.8,119.8,86,104.4,104.8,104.4
			z M131.8,434.8H78.2c-22.1-16.6-36.5-51.5-36.5-89.2c0-17.5,3.1-34.6,8.9-49.7c5.4-14,13-25.9,21.9-34.6
			c11.3-10.8,17.7-25.8,17.7-41.2V220h29.6v0.1c0,15.4,6.5,30.4,17.7,41.2c5.1,4.9,9.7,10.8,13.7,17.5c-4.2,15.5-6.5,32.3-6.5,49.9
			c0,25.5,4.8,49.5,13.2,70.1C151.6,414,142.6,426.6,131.8,434.8z M348.2,195.3v9.2c4-0.3,8.1-0.5,12.1-0.5c23.1,0,45.3,5.2,65.5,15
			v-24c0-7.6,2.7-14.9,7.3-20.9c7.8-10.1,12.4-22.9,12.1-36.7c-0.6-31.5-26.7-57-58.2-57c-0.1,0-0.2,0-0.3,0
			c-32,0.1-58,26.2-58,58.2c0,13.5,4.6,26,12.4,35.9C345.8,180.4,348.2,187.8,348.2,195.3z M386.9,104.4l0.2,0
			c18.5,0,33.8,15,34.2,33.5c0.2,7.9-2.3,15.4-7.1,21.6c-7.9,10.3-12.3,22.9-12.3,35.5v1h-29.6v-0.7c0-13-4.3-25.6-12.1-35.6
			c-4.8-6.1-7.3-13.4-7.3-21.1C352.8,119.8,368.1,104.4,386.9,104.4z M321,288c-6.5,1.1-11,7.3-9.9,13.8c1.1,6.5,7.3,11,13.8,9.9
			s11-7.3,9.9-13.8C333.7,291.3,327.6,286.9,321,288z M368.4,280.2c-6.5,1.1-11,7.3-9.9,13.8c1.1,6.5,7.3,11,13.8,9.9
			c6.5-1.1,11-7.3,9.9-13.8C381.1,283.5,374.9,279.1,368.4,280.2z M349.9,315.6c-6.5,1.1-11,7.3-9.9,13.8c1.1,6.5,7.3,11,13.8,9.9
			s11-7.3,9.9-13.8C362.6,319,356.5,314.6,349.9,315.6z"/>
	</g>
</g>
</svg>
