<?xml version="1.0" encoding="utf-8"?>
<!-- Generator: Adobe Illustrator 23.1.1, SVG Export Plug-In . SVG Version: 6.00 Build 0)  -->
<svg version="1.1" id="Ebene_1" xmlns="http://www.w3.org/2000/svg" xmlns:xlink="http://www.w3.org/1999/xlink" x="0px" y="0px"
	 viewBox="0 0 504 504" style="enable-background:new 0 0 504 504;" xml:space="preserve">
<g>
	<g>
		<path d="M272.8,247.6l-19.4,43.7l-34.2-102.6c-1.6-4.9-6.2-8.2-11.4-8.2s-9.8,3.3-11.4,8.2l-17.3,51.8H35.7c-6.6,0-12,5.4-12,12
			c0,6.6,5.4,12,12,12h152c5.2,0,9.8-3.3,11.4-8.2l8.6-25.8l32.6,97.8c1.6,4.7,5.9,8,10.8,8.2c0.2,0,0.4,0,0.6,0c4.7,0,9-2.8,11-7.1
			l28.8-64.9h176.2c6.6,0,12-5.4,12-12c0-6.6-5.4-12-12-12h-184C279,240.5,274.7,243.3,272.8,247.6z"/>
	</g>
	<g>
		<polygon points="391.6,288.4 251.7,432.3 111.9,288.4 74.4,288.4 251.7,470.9 429,288.4 		"/>
		<path d="M56,216c-3.7-11.2-5.7-23.2-5.7-35.6c0-27.9,10-54.1,28.2-73.6c17.7-19.1,41.2-29.6,66-29.6c24.8,0,48.2,10.5,66,29.5
			l21.6,23.2l19.7,21.1l19.7-21.1l21.6-23.2c17.7-19.1,41.1-29.6,65.9-29.6h0c24.8,0,48.3,10.5,66,29.6
			c18.2,19.5,28.2,45.7,28.2,73.6c0,12.4-2,24.3-5.7,35.6h28c11.5-43.9,1.3-93-30.8-127.5c-22.9-24.6-53.3-38.2-85.7-38.2
			c0,0,0,0,0,0c-32.3,0-62.8,13.5-85.6,38.1l-21.6,23.2l-21.6-23.2c-22.9-24.6-53.3-38.1-85.6-38.1c0,0,0,0,0,0
			c-32.4,0-62.8,13.5-85.7,38.1C26.8,123,16.5,172.2,28.1,216H56z"/>
	</g>
</g>
</svg>
