<?xml version="1.0" encoding="utf-8"?>
<!-- Generator: Adobe Illustrator 23.0.3, SVG Export Plug-In . SVG Version: 6.00 Build 0)  -->
<svg version="1.1" id="Ebene_1" xmlns="http://www.w3.org/2000/svg" xmlns:xlink="http://www.w3.org/1999/xlink" x="0px" y="0px"
	 viewBox="0 0 504 504" style="enable-background:new 0 0 504 504;" xml:space="preserve">
<g>
	<g>
		<path d="M225.2,241.7c12.2,0,22.4,4.6,29.5,13.4c9.6,12,12.8,30.7,8.5,50.1c-5.2,23.8-0.4,47.8,3,59.9c1.4,5.1,3.3,10.2,5.2,15.2
			c4.8,13,9.4,25.3,5.4,35.4c-6.5,16.2-13.5,23.1-27,26.2c-4.8,1.1-9.5,1.7-13.8,1.7c-22.4,0-37.3-14.9-54.5-32.2
			c-7.2-7.2-14.6-14.6-22.9-21.2c-12.2-9.7-26.6-14.4-40.7-18.9c-9.6-3.1-18.6-6-26.4-10.3c-10.8-5.9-22.4-20.1-27.4-33.6
			c-7-18.8-5-33.5,6.3-45c15.8-16.2,39.3-17.8,64.2-19.6c17.6-1.2,35.8-2.5,52.4-9.1c4.1-1.6,7.6-3.2,11-4.8
			c8-3.7,14.3-6.6,23.6-7.2C222.8,241.8,224,241.7,225.2,241.7 M225.2,217.7c-1.7,0-3.5,0.1-5.3,0.2c-13.7,1-22.9,5.2-31.9,9.4
			l-0.1,0c-3.2,1.5-6.3,2.9-9.7,4.2c-13.2,5.2-28.8,6.3-45.3,7.5c-27,1.9-57.5,4.1-79.7,26.8c-12.5,12.8-24.7,35.3-11.6,70.2
			c7.1,18.9,22.5,37.5,38.3,46.2c9.9,5.4,20.4,8.8,30.6,12.1c12.5,4,24.3,7.9,33.1,14.8c7.2,5.8,14.1,12.7,20.8,19.3l0,0
			c9.4,9.4,18.3,18.3,28.9,25.4c13.6,9.2,27.6,13.7,42.6,13.7c6.2,0,12.7-0.8,19.3-2.3c26.8-6.3,37.2-24.1,43.8-40.7
			c7.4-18.7,0.7-36.7-5.2-52.7c-1.7-4.5-3.4-9.1-4.5-13.2c-2.2-8-7-28.9-2.7-48.3c2.8-12.5,3.2-25.3,1.2-37.1
			c-2.2-12.7-7.2-24.2-14.4-33.3C261.8,225.7,244.7,217.7,225.2,217.7L225.2,217.7z"/>
	</g>
	<g>
		<path d="M272.1,60.3c2,0,3.9,0.3,5.7,1c15.7,5.7,20.5,35.4,10.2,63.7c-10,27.7-29.3,43-42.4,43.4c-0.2,0-0.3,0-0.5,0
			c-2,0-3.9-0.3-5.7-1c-9.4-3.4-13.1-14.5-14.5-20.9c-2.7-12.7-1.2-27.9,4.2-42.8c10-27.7,29.3-43,42.4-43.4
			C271.7,60.3,271.9,60.3,272.1,60.3 M272.1,36.3c-0.4,0-0.8,0-1.2,0c-12.8,0.4-26.4,6.8-38.2,18c-11.2,10.6-20.2,24.8-26.1,41.1
			c-6.9,19.1-8.7,39-5.1,56c4.1,19.3,14.7,33,29.8,38.4c4.4,1.6,9.1,2.4,13.9,2.4c0.4,0,0.8,0,1.2,0c12.8-0.4,26.4-6.8,38.2-18
			c11.2-10.6,20.2-24.8,26.1-41.1c6.3-17.4,8.3-36,5.7-52.3c-3.4-21-14.4-36.4-30.4-42.1C281.6,37.1,276.9,36.3,272.1,36.3
			L272.1,36.3z"/>
	</g>
	<g>
		<path d="M133.6,80.5c1,0,2,0.1,3,0.3c9.9,1.8,15.3,12.2,17.7,18.2c4.7,12,5.8,27.3,2.9,42.9c-5.5,30.1-23.1,49.1-36.9,50
			c-0.4,0-0.8,0-1.1,0c-1,0-2-0.1-3-0.3c-9.9-1.8-15.3-12.2-17.7-18.2c-4.7-12-5.8-27.3-2.9-42.9c5.6-30.1,23.1-49.1,36.9-50
			C132.8,80.6,133.2,80.5,133.6,80.5 M133.6,56.5c-0.9,0-1.8,0-2.8,0.1c-14,1-27.7,9.2-38.8,23.1c-9.9,12.5-16.8,28.6-20.1,46.5
			c-3.7,20-2.2,39.9,4.2,56.1c7.2,18.4,19.9,30.1,35.7,33c2.4,0.4,4.9,0.7,7.3,0.7c0.9,0,1.8,0,2.8-0.1c14-1,27.7-9.2,38.8-23.2
			c9.9-12.5,16.8-28.6,20.1-46.5c3.7-20,2.2-39.9-4.2-56.1c-7.2-18.4-19.9-30.1-35.7-33C138.5,56.8,136,56.5,133.6,56.5L133.6,56.5z
			"/>
	</g>
	<g>
		<path d="M393,139.5c4.7,0,11.2,1,15.7,5.6c11.7,11.9,3.1,40.8-18.3,61.9c-14.3,14-32.1,22.7-46.5,22.7c-4.7,0-11.1-1-15.7-5.6
			c-7-7.2-5.5-18.8-4-25.1c3-12.6,11-25.6,22.3-36.8C360.7,148.2,378.6,139.5,393,139.5 M393,115.5c-20.8,0-44.5,11.1-63.3,29.6
			c-14.5,14.2-24.8,31.4-28.9,48.3c-4.7,19.2-1,36.1,10.2,47.5c8.2,8.3,19.5,12.8,32.8,12.8c20.8,0,44.5-11.1,63.3-29.6
			c13.2-13,23.1-28.9,27.8-44.7c6.1-20.4,2.7-39-9.1-51.1C417.6,119.9,406.3,115.5,393,115.5L393,115.5z"/>
	</g>
	<g>
		<path d="M416.5,283.1c2.3,0,4.6,0.1,6.8,0.4c6.3,0.8,14.5,3.3,18.5,10.3c8.2,14.5-7.5,40.2-33.6,55.1c-13.1,7.4-27,11.4-39.2,11.4
			c-2.3,0-4.6-0.1-6.8-0.4c0,0,0,0,0,0c-6.3-0.8-14.5-3.3-18.5-10.3c-5-8.7-0.5-19.6,2.6-25.3c6.2-11.4,17.2-22,31-29.8
			C390.4,287.1,404.3,283.1,416.5,283.1 M416.5,259.1c-16.4,0-34.5,5.2-51,14.6c-17.7,10-32,24-40.3,39.3
			c-9.4,17.4-10.3,34.6-2.3,48.6c6.9,12.1,19.7,20.1,36.2,22.3l0.3,0l0,0c3.1,0.4,6.4,0.6,9.7,0.6c16.4,0,34.5-5.2,51-14.6
			c16.1-9.2,29.7-22,38.3-36c11.1-18.2,12.7-37,4.3-51.8c-6.9-12.1-19.7-20.1-36.2-22.3C423.3,259.3,419.9,259.1,416.5,259.1
			L416.5,259.1z"/>
	</g>
</g>
</svg>
