<?xml version="1.0" encoding="utf-8"?>
<!-- Generator: Adobe Illustrator 23.1.1, SVG Export Plug-In . SVG Version: 6.00 Build 0)  -->
<svg version="1.1" id="Ebene_1" xmlns="http://www.w3.org/2000/svg" xmlns:xlink="http://www.w3.org/1999/xlink" x="0px" y="0px"
	 viewBox="0 0 504 504" style="enable-background:new 0 0 504 504;" xml:space="preserve">
<g>
	<path d="M36,48v239.5V384h156v48h-48c-6.6,0-12,5.4-12,12s5.4,12,12,12h48h120h48c6.6,0,12-5.4,12-12s-5.4-12-12-12h-48v-48h156
		v-96.5V48H36z M288,432h-72v-48h72V432z M444,360H312H192H60v-48.5h384V360z M60,287.5V72h384v215.5H60z"/>
	<path d="M96,251.5h120V108H96V251.5z M120,132h72v95.5h-72V132z"/>
	<rect x="252" y="167.5" width="156" height="24"/>
	<rect x="252" y="227.5" width="132" height="24"/>
</g>
</svg>
