<?xml version="1.0" encoding="utf-8"?>
<!-- Generator: Adobe Illustrator 23.1.1, SVG Export Plug-In . SVG Version: 6.00 Build 0)  -->
<svg version="1.1" id="Ebene_1" xmlns="http://www.w3.org/2000/svg" xmlns:xlink="http://www.w3.org/1999/xlink" x="0px" y="0px"
	 viewBox="0 0 504 504" style="enable-background:new 0 0 504 504;" xml:space="preserve">
<g>
	<path d="M432.9,121.4H331.5V112c0-28.4-23.1-51.5-51.5-51.5H224c-28.4,0-51.5,23.1-51.5,51.5v9.3H71.1c-26,0-47.1,21.1-47.1,47.1
		v240.9c0,26,21.1,47.1,47.1,47.1h361.7c26,0,47.1-21.1,47.1-47.1V168.5C480,142.5,458.9,121.4,432.9,121.4z M375,145.4v287.1H129
		V145.4H375z M196.5,112c0-15.2,12.3-27.5,27.5-27.5H280c15.2,0,27.5,12.3,27.5,27.5v9.3h-111V112z M48,409.4V168.5
		c0-12.8,10.4-23.1,23.1-23.1H105v287.1H71.1C58.4,432.5,48,422.1,48,409.4z M456,409.4c0,12.8-10.4,23.1-23.1,23.1H399V145.4h33.9
		c12.8,0,23.1,10.4,23.1,23.1V409.4z"/>
	<path d="M182,296l117.4-31.4l-24.5-91.3l-117.4,31.4L182,296z M257.9,202.7l12,44.9l-71,19l-12-44.9L257.9,202.7z"/>
	<path d="M238.5,350c0,29.8,24.2,54,54,54s54-24.2,54-54s-24.2-54-54-54S238.5,320.2,238.5,350z M322.5,350c0,16.5-13.5,30-30,30
		s-30-13.5-30-30s13.5-30,30-30S322.5,333.5,322.5,350z"/>
</g>
</svg>
