<?xml version="1.0" standalone="no"?>
<!DOCTYPE svg PUBLIC "-//W3C//DTD SVG 20010904//EN"
 "http://www.w3.org/TR/2001/REC-SVG-20010904/DTD/svg10.dtd">
<svg version="1.0" xmlns="http://www.w3.org/2000/svg"
 width="64.000000pt" height="64.000000pt" viewBox="0 0 64.000000 64.000000"
 preserveAspectRatio="xMidYMid meet">

<g transform="translate(0.000000,64.000000) scale(0.100000,-0.100000)"
fill="#000000" stroke="none">
<path d="M195 556 c-80 -30 -134 -122 -120 -205 8 -50 35 -93 81 -127 33 -25
46 -29 104 -29 55 0 73 4 107 27 57 37 87 102 81 174 -10 121 -138 202 -253
160z m163 -52 c89 -69 81 -195 -17 -261 -91 -61 -222 4 -237 118 -17 136 144
226 254 143z"/>
<path d="M203 491 c-36 -23 -58 -53 -68 -93 -6 -21 -4 -28 8 -28 9 0 18 12 22
29 7 34 39 65 80 78 17 5 30 14 30 19 0 17 -40 14 -72 -5z"/>
<path d="M160 305 c0 -8 7 -15 15 -15 8 0 15 7 15 15 0 8 -7 15 -15 15 -8 0
-15 -7 -15 -15z"/>
<path d="M405 230 c-4 -6 -1 -17 5 -25 6 -8 9 -19 5 -25 -8 -14 86 -110 108
-110 20 0 47 27 47 46 0 22 -80 104 -102 104 -11 0 -28 5 -38 10 -13 7 -21 7
-25 0z m104 -75 c34 -39 35 -41 22 -50 -13 -7 -81 53 -81 71 0 25 27 15 59
-21z"/>
</g>
</svg>
