<?xml version="1.0" encoding="utf-8"?>
<!-- Generator: Adobe Illustrator 23.1.1, SVG Export Plug-In . SVG Version: 6.00 Build 0)  -->
<svg version="1.1" id="Ebene_1" xmlns="http://www.w3.org/2000/svg" xmlns:xlink="http://www.w3.org/1999/xlink" x="0px" y="0px"
	 viewBox="0 0 504 504" style="enable-background:new 0 0 504 504;" xml:space="preserve">
<style type="text/css">
	.st0{fill:#E10000;}
</style>
<g>
	<g>
		<path class="st0" d="M344.5,159.5c-4.7-4.7-12.3-4.7-17,0L252,235l-75.5-75.5c-4.7-4.7-12.3-4.7-17,0s-4.7,12.3,0,17L235,252
			l-75.5,75.5c-4.7,4.7-4.7,12.3,0,17c2.3,2.3,5.4,3.5,8.5,3.5s6.1-1.2,8.5-3.5L252,269l75.5,75.5c2.3,2.3,5.4,3.5,8.5,3.5
			s6.1-1.2,8.5-3.5c4.7-4.7,4.7-12.3,0-17L269,252l75.5-75.5C349.2,171.8,349.2,164.2,344.5,159.5z M252,48
			c-35.5,0-68.9,9.1-97.9,25c-36.8,20.2-66.8,51.4-85.3,89.2C55.5,189.3,48,219.8,48,252c0,112.7,91.3,204,204,204s204-91.3,204-204
			S364.7,48,252,48z M379.3,379.3c-34,34-79.2,52.7-127.3,52.7s-93.3-18.7-127.3-52.7S72,300.1,72,252c0-27.8,6.2-54.4,18.3-79.2
			c8.1-16.6,18.8-31.8,31.6-45.2s27.5-24.7,43.7-33.6c26.3-14.4,56.2-22,86.4-22c48.1,0,93.3,18.7,127.3,52.7S432,203.9,432,252
			S413.3,345.3,379.3,379.3z"/>
	</g>
</g>
</svg>
