<svg id="Ebene_1" data-name="Ebene 1" xmlns="http://www.w3.org/2000/svg" xmlns:xlink="http://www.w3.org/1999/xlink" viewBox="0 0 250 42"><defs><style>.cls-1{fill:#fff;}.cls-2{fill:url(#Goldener_Verlauf);}.cls-3{fill:url(#Goldener_Verlauf-2);}</style><linearGradient id="Goldener_Verlauf" x1="12.78" y1="20.46" x2="36.87" y2="20.46" gradientUnits="userSpaceOnUse"><stop offset="0" stop-color="#fe0"/><stop offset="1" stop-color="#ffc800"/></linearGradient><linearGradient id="Goldener_Verlauf-2" x1="173.87" y1="21" x2="239.56" y2="21" xlink:href="#Goldener_Verlauf"/></defs><title>Quer_reduziert</title><rect width="163.93" height="42"/><path class="cls-1" d="M54.63,16.61H50V11.69H65.16v4.92h-4.7V30.32H54.63Z"/><path class="cls-1" d="M68,11.69h5.82V30.32H68Z"/><path class="cls-1" d="M77.09,11.69h8.44c4.55,0,7.68,2.63,7.68,6.84s-3,7-7.68,7H82.92v4.79H77.09Zm8.14,9a2,2,0,0,0,2.16-2.16,2,2,0,0,0-2.16-2.1H82.92v4.26Z"/><path class="cls-1" d="M104.39,16.61H99.71V11.69h15.22v4.92h-4.71V30.32h-5.83Z"/><path class="cls-1" d="M116.35,22.17V19.83c0-5.06,3.05-8.51,8.88-8.51s8.89,3.45,8.89,8.51v2.34c0,5.06-3.06,8.52-8.89,8.52S116.35,27.23,116.35,22.17Zm11.94.35v-3c0-2.16-1.09-3.33-3.06-3.33s-3.06,1.17-3.06,3.33v3c0,2.16,1.09,3.33,3.06,3.33S128.29,24.68,128.29,22.52Z"/><path class="cls-1" d="M136.73,11.69h8.43c4.55,0,7.69,2.63,7.69,6.84s-3,7-7.69,7h-2.6v4.79h-5.83Zm8.14,9A2,2,0,0,0,147,18.58a2,2,0,0,0-2.16-2.1h-2.31v4.26Z"/><path class="cls-2" d="M24.61,29.7l-7.65,4a.64.64,0,0,1-.93-.68l1.46-8.53a.62.62,0,0,0-.18-.56l-6.2-6a.65.65,0,0,1,.36-1.1L20,15.58a.66.66,0,0,0,.48-.35l3.83-7.76a.63.63,0,0,1,1.14,0l3.83,7.76a.66.66,0,0,0,.48.35l8.56,1.24a.65.65,0,0,1,.36,1.1l-6.2,6a.62.62,0,0,0-.18.56l1.46,8.53a.64.64,0,0,1-.93.68l-7.65-4A.64.64,0,0,0,24.61,29.7Z"/><rect class="cls-3" x="163.93" width="86.07" height="42"/><path d="M174.42,26l7.3-6.51a2.91,2.91,0,0,0,1.2-2.14,1.2,1.2,0,0,0-1.33-1.3,1.22,1.22,0,0,0-1.36,1.38v.4h-5.55v-.61c0-3.84,2.67-5.89,6.88-5.89,4.48,0,7.14,2.34,7.14,6,0,3-1.6,4.61-3.94,6.32l-2.75,2h6.4v4.72h-14Z"/><path d="M206.1,23.79c0,4.18-3.12,6.9-7.71,6.9s-7.7-2.72-7.7-6.9V18.18c0-4.18,3.12-6.9,7.7-6.9s7.71,2.72,7.71,6.9Zm-5.76-5.85a1.95,1.95,0,1,0-3.89,0V24a1.95,1.95,0,1,0,3.89,0Z"/><path d="M207.91,26l7.31-6.51a2.91,2.91,0,0,0,1.2-2.14,1.2,1.2,0,0,0-1.34-1.3,1.22,1.22,0,0,0-1.36,1.38v.4h-5.54v-.61c0-3.84,2.67-5.89,6.88-5.89,4.48,0,7.14,2.34,7.14,6,0,3-1.6,4.61-3.94,6.32l-2.75,2h6.4v4.72h-14Z"/><path d="M239.6,23.79c0,4.18-3.12,6.9-7.71,6.9s-7.7-2.72-7.7-6.9V18.18c0-4.18,3.12-6.9,7.7-6.9s7.71,2.72,7.71,6.9Zm-5.76-5.85a1.95,1.95,0,1,0-3.89,0V24a1.95,1.95,0,1,0,3.89,0Z"/></svg>