<svg xmlns="http://www.w3.org/2000/svg" width="27.999" height="27.999" viewBox="0 0 27.999 27.999">
  <g id="Gruppe_1799" data-name="Gruppe 1799" transform="translate(0)">
    <path id="Pfad_276" data-name="Pfad 276" d="M3083.828,1491.972a4.116,4.116,0,1,0-3.573-2.058A4.092,4.092,0,0,0,3083.828,1491.972Zm-2.393-4.756a2.47,2.47,0,1,1,.247,1.875A2.455,2.455,0,0,1,3081.435,1487.216Z" transform="translate(-3069.822 -1480.171)"/>
    <path id="Pfad_277" data-name="Pfad 277" d="M3005.143,1474.941a14,14,0,1,0-14.85,0l0,0q.415.26.848.491h0a13.909,13.909,0,0,0,1.632.739h0a13.912,13.912,0,0,0,1.646.507h0a14.08,14.08,0,0,0,6.588,0h0a13.88,13.88,0,0,0,1.645-.507h0a13.937,13.937,0,0,0,1.633-.739h0q.433-.231.848-.491Zm-19.778-11.869a12.352,12.352,0,1,1,21.087,8.734q-.245.244-.5.472v-5.5a2.762,2.762,0,0,0-.485-1.566c-.839-1.227-2.864-2.689-7.75-2.689s-6.913,1.464-7.751,2.692a2.762,2.762,0,0,0-.484,1.564v5.5q-.256-.229-.5-.472A12.271,12.271,0,0,1,2985.365,1463.072Zm16.47,4.391a.823.823,0,0,0-.824.823v6.7a12.5,12.5,0,0,1-6.588,0v-6.7a.823.823,0,1,0-1.647,0v6.114a12.22,12.22,0,0,1-1.647-.874v-6.748a1.126,1.126,0,0,1,.2-.636c1.216-1.781,4.874-1.974,6.391-1.974s5.174.192,6.39,1.971a1.122,1.122,0,0,1,.2.636v6.75a12.179,12.179,0,0,1-1.647.874v-6.114A.823.823,0,0,0,3001.836,1467.463Z" transform="translate(-2983.719 -1449.073)"/>
  </g>
</svg>
