<?xml version="1.0" encoding="utf-8"?>
<!-- Generator: Adobe Illustrator 23.0.3, SVG Export Plug-In . SVG Version: 6.00 Build 0)  -->
<svg version="1.1" id="Ebene_1" xmlns="http://www.w3.org/2000/svg" xmlns:xlink="http://www.w3.org/1999/xlink" x="0px" y="0px"
	 viewBox="0 0 504 504" style="enable-background:new 0 0 504 504;" xml:space="preserve">
<g>
	<g>
		<path d="M481,180.6c-9.9-20.1-25.5-36.4-45.1-47.2c-15.8-8.7-33.7-13.2-51.9-13.2h-96c-27.2,0-49.6-9.1-66.6-26.9
			c-12.9-13.5-18.2-27.5-18.6-28.7c-3.2-10-12.5-16.5-22.7-16.5c-1.2,0-2.5,0.1-3.7,0.3C164.6,50,156,60.3,156,72.1v96
			c-33.1,0-60,26.9-60,60s26.9,60,60,60v96c0,11.8,8.6,22.1,20.3,23.9c1.3,0.2,2.5,0.3,3.7,0.3c10.2,0,19.5-6.5,22.7-16.5
			c0.4-1.2,5.8-15.2,18.6-28.7c17-17.9,39.4-26.9,66.6-26.9h96c8.2,0,16.2-0.9,24-2.7v98.7h-48v-72h-24v96h96V324.9
			c10.4-5.2,19.9-12,28.4-20.4c20.4-20.4,31.6-47.5,31.6-76.4C492,211.4,488.3,195.4,481,180.6z M156,264.1c-19.9,0-36-16.1-36-36
			s16.1-36,36-36V264.1z M336,312.1h-48c-84,0-108,72-108,72v-312c0,0,24,72,108,72h48V312.1z M384,312.1h-24v-168h24
			c14.6,0,28.4,3.7,40.3,10.3c15.2,8.3,27.5,21.2,35.1,36.7c5.5,11.2,8.5,23.7,8.5,37C468,274.5,430.4,312.1,384,312.1z M72,228.1
			c0-6.6-5.4-12-12-12H24c-6.6,0-12,5.4-12,12s5.4,12,12,12h36C66.6,240.1,72,234.7,72,228.1z M79.6,168.7c2.3,2.3,5.4,3.5,8.5,3.5
			s6.1-1.2,8.5-3.5c4.7-4.7,4.7-12.3,0-17l-25.5-25.5c-4.7-4.7-12.3-4.7-17,0c-4.7,4.7-4.7,12.3,0,17L79.6,168.7z M79.6,287.5
			l-25.5,25.5c-4.7,4.7-4.7,12.3,0,17c2.3,2.3,5.4,3.5,8.5,3.5c3.1,0,6.1-1.2,8.5-3.5l25.5-25.5c4.7-4.7,4.7-12.3,0-17
			C91.9,282.8,84.3,282.8,79.6,287.5z"/>
	</g>
</g>
</svg>
