<?xml version="1.0" encoding="utf-8"?>
<!-- Generator: Adobe Illustrator 23.0.3, SVG Export Plug-In . SVG Version: 6.00 Build 0)  -->
<svg version="1.1" id="Ebene_1" xmlns="http://www.w3.org/2000/svg" xmlns:xlink="http://www.w3.org/1999/xlink" x="0px" y="0px"
	 viewBox="0 0 504 504" style="enable-background:new 0 0 504 504;" xml:space="preserve">
<g>
	<g>
		<path d="M24,312h120V192H24V312z M48,216h72v72H48V216z M360,480h120V360H360V480z M384,384h72v72h-72V384z M360,312h120V192H360
			V312z M384,216h72v72h-72V216z M360,24v120h120V24H360z M456,120h-72V48h72V120z M324,96c6.6,0,12-5.4,12-12s-5.4-12-12-12H216
			v168h-48v24h48v168h108c6.6,0,12-5.4,12-12s-5.4-12-12-12h-84V264h84c6.6,0,12-5.4,12-12s-5.4-12-12-12h-84V96H324z"/>
	</g>
</g>
</svg>
