<?xml version="1.0" encoding="utf-8"?>
<!-- Generator: Adobe Illustrator 23.0.3, SVG Export Plug-In . SVG Version: 6.00 Build 0)  -->
<svg version="1.1" id="Ebene_1" xmlns="http://www.w3.org/2000/svg" xmlns:xlink="http://www.w3.org/1999/xlink" x="0px" y="0px"
	 viewBox="0 0 504 504" style="enable-background:new 0 0 504 504;" xml:space="preserve">
<g>
	<g>
		<path d="M252,48c-35.5,0-68.9,9.1-97.9,25c-36.8,20.2-66.8,51.4-85.3,89.2C55.5,189.3,48,219.8,48,252c0,112.7,91.3,204,204,204
			c112.7,0,204-91.3,204-204S364.7,48,252,48z M379.3,379.3c-34,34-79.2,52.7-127.3,52.7c-48.1,0-93.3-18.7-127.3-52.7
			S72,300.1,72,252c0-27.8,6.2-54.4,18.3-79.2c8.1-16.6,18.8-31.8,31.6-45.2c12.8-13.4,27.5-24.7,43.7-33.6
			c26.3-14.4,56.2-22,86.4-22c48.1,0,93.3,18.7,127.3,52.7c34,34,52.7,79.2,52.7,127.3S413.3,345.3,379.3,379.3z M341.8,147.5
			c-5.8-3.2-13.1-1.2-16.3,4.6l-91.2,163.4l-62-68.2c-4.5-4.9-12-5.3-17-0.8c-4.9,4.5-5.3,12-0.8,17l73.2,80.6
			c2.3,2.5,5.5,3.9,8.9,3.9c0.5,0,0.9,0,1.4-0.1c3.8-0.4,7.2-2.7,9.1-6.1l99.4-178C349.7,158.1,347.6,150.8,341.8,147.5z"/>
	</g>
</g>
</svg>
