<?xml version="1.0" encoding="utf-8"?>
<!-- Generator: Adobe Illustrator 23.0.3, SVG Export Plug-In . SVG Version: 6.00 Build 0)  -->
<svg version="1.1" id="Ebene_1" xmlns="http://www.w3.org/2000/svg" xmlns:xlink="http://www.w3.org/1999/xlink" x="0px" y="0px"
	 viewBox="0 0 504 504" style="enable-background:new 0 0 504 504;" xml:space="preserve">
<g>
	<g>
		<path d="M475.8,308.2c8.2-8.1,3.7-22.1-7.6-23.8l-60.2-8.9V36H24v336.3h72l60,71.7l60-71.7h38.5c0,0.9,0,1.7-0.2,2.6l-13,76.7
			c-1.5,9,5.5,16.4,13.6,16.4c2.1,0,4.3-0.5,6.4-1.6l67.9-36.2c2-1.1,4.2-1.6,6.4-1.6s4.4,0.5,6.4,1.6l67.9,36.2
			c2.1,1.1,4.3,1.6,6.4,1.6c8,0,15.1-7.3,13.6-16.4l-13-76.7c-0.8-4.5,0.7-9.1,4-12.4L475.8,308.2z M204.8,348.3l-7.2,8.6L156,406.6
			l-41.6-49.7l-7.2-8.6H48V60h336v208.7c-0.8-0.9-1.5-2-2.1-3.1l-34-69.8c-2.5-5.2-7.4-7.8-12.3-7.8c-4.9,0-9.8,2.6-12.3,7.8
			l-34,69.8c-2,4.1-5.9,7-10.4,7.6L203,284.4c-11.3,1.7-15.8,15.7-7.6,23.8l40.5,40.1H204.8z M404,345.5
			c-8.8,8.7-12.8,21.2-10.7,33.4l9.5,56.4L353.3,409c-5.4-2.9-11.6-4.4-17.7-4.4s-12.3,1.5-17.7,4.4l-49.5,26.4l9.5-56.4
			c2.1-12.2-1.9-24.7-10.7-33.4l-40.7-40.3l56-8.3c12.3-1.8,23-9.6,28.4-20.9l24.7-50.8l24.7,50.8c5.5,11.3,16.1,19.1,28.4,20.9
			l56,8.3L404,345.5z M336,108H96v24h240V108z M276,180H96v24h180V180z"/>
	</g>
</g>
</svg>
