<?xml version="1.0" encoding="UTF-8"?><svg id="a" xmlns="http://www.w3.org/2000/svg" viewBox="0 0 243.36 243.36"><defs><style>.b{fill:#fff;}.c{fill:#221f20;}</style></defs><rect class="c" y="0" width="243.36" height="243.36" rx="56.86" ry="56.86"/><path class="b" d="M109.79,153.51c3.62,6.88,14.18,12.95,25.4,12.95,33.44,0,56.11-30.47,56.11-71.26,0-30.82-26.13-59.57-65.83-59.57-49.4,0-74.3,35.43-74.3,64.96,0,17.89,6.76,33.79,21.3,39.73,2.37,.98,4.5,.03,5.2-2.6,.48-1.82,1.63-6.45,2.12-8.34,.7-2.62,.44-3.52-1.49-5.81-4.18-4.94-6.85-11.32-6.85-20.39,0-26.26,19.65-49.78,51.18-49.78,27.91,0,43.26,17.06,43.26,39.84,0,29.98-13.27,55.28-32.96,55.28-10.88,0-19.01-8.99-16.41-20.03,3.12-13.17,9.18-27.39,9.18-36.89,0-8.51-4.57-15.61-14.02-15.61-11.11,0-20.05,11.5-20.05,26.91,0,9.81,3.31,16.46,3.31,16.46,0,0-11.37,48.21-13.38,56.65-1.67,7.15-1.81,30.5,2.83,31.76,3.6-5.92,16.12-18.45,18.11-25.67,1.27-4.62,7.31-28.57,7.31-28.57Z"/></svg>