<?xml version="1.0" encoding="utf-8"?>
<!-- Generator: Adobe Illustrator 23.0.3, SVG Export Plug-In . SVG Version: 6.00 Build 0)  -->
<svg version="1.1" id="Ebene_1" xmlns="http://www.w3.org/2000/svg" xmlns:xlink="http://www.w3.org/1999/xlink" x="0px" y="0px"
	 viewBox="0 0 504 504" style="enable-background:new 0 0 504 504;" xml:space="preserve">
<g>
	<g>
		<path d="M50,268.6c0.6,4.1,3.4,7.3,7.3,8.8c0,0,0.1,0,0.1,0l30,12.2c5.3,2.1,9.5,5.8,12.2,10.4h25.9c-0.6-2-1.2-3.9-2.1-5.9
			c-5.2-12.2-14.8-21.7-27.1-26.7l-23.6-9.6c-1.1-11.1-1.2-22.3-0.2-33.4l23.4-9.9c25.3-10.7,37.1-39.9,26.5-65.1l-9.9-23.4
			c7.1-8.6,14.9-16.6,23.5-23.8l23.6,9.6c6,2.4,12.3,3.7,18.7,3.7c20.3,0,38.4-12.2,46-31l9.6-23.6c5.9-0.6,11.8-0.9,17.7-0.9
			c5.2,0,10.5,0.2,15.7,0.7l9.9,23.4c7.8,18.5,25.8,30.4,45.8,30.4c6.7,0,13.2-1.3,19.3-3.9l23.4-9.9c8.7,7.1,16.7,15,23.8,23.5
			l-9.6,23.5c-5,12.3-5,25.8,0.2,38.1c5.2,12.2,14.8,21.8,27.1,26.8l23.6,9.6c1.1,11.1,1.2,22.3,0.2,33.4l-23.4,9.9
			c-15.2,6.4-25.6,19.5-29.1,34.5h25.3c2.6-5.4,7.1-9.9,13.1-12.4l29.8-12.6c0,0,0.1,0,0.1-0.1c3.8-1.6,6.6-4.9,7.2-9
			c2-15.9,2.3-32.2,0.4-48.8c-0.2-1.9-0.5-3.8-0.7-5.6c-0.6-4-3.4-7.3-7.2-8.8c-0.1,0-0.1-0.1-0.2-0.1l-30-12.2
			c-13.1-5.3-19.5-20.3-14.1-33.5l12.2-30c0-0.1,0.1-0.1,0.1-0.2c1.6-3.8,1.1-8.1-1.4-11.4c-11.2-14.4-24.2-27.3-38.7-38.2
			c-2-1.5-4.3-2.2-6.6-2.2c-1.6,0-3.3,0.3-4.8,1c0,0,0,0-0.1,0l-29.9,12.6c-3.3,1.4-6.6,2-10,2c-10,0-19.6-5.9-23.7-15.7L287,44.9
			c0-0.1-0.1-0.2-0.1-0.3c-1.6-3.7-4.9-6.5-8.9-7c-8.6-1.1-17.3-1.7-26.1-1.7c-7.5,0-15.1,0.4-22.8,1.3c-1.9,0.2-3.8,0.5-5.6,0.8
			c-4.1,0.6-7.3,3.4-8.8,7.3c0,0,0,0.1,0,0.1l-12.2,30c-4.1,10-13.7,16-23.8,16c-3.2,0-6.5-0.6-9.7-1.9l-30-12.2c0,0-0.1,0-0.1,0
			c-1.5-0.6-3.1-1-4.7-1c-2.4,0-4.8,0.8-6.8,2.3c-14.4,11.2-27.3,24.2-38.2,38.7c-2.5,3.3-2.8,7.6-1.2,11.4c0,0,0,0.1,0.1,0.2
			l12.6,29.8c5.5,13.1-0.6,28.2-13.7,33.7L57,205c-0.1,0-0.1,0-0.2,0.1c-3.8,1.6-6.6,4.9-7.1,9c-2,15.9-2.3,32.2-0.4,48.8
			C49.5,264.8,49.8,266.7,50,268.6z M293.4,300h34.2c2.7-3.4,5.1-7.1,7.4-11c27.1-46.9,11-106.8-35.9-133.9
			c-15.4-8.9-32.3-13.1-48.9-13.1c-33.9,0-66.8,17.6-85,49c-20.5,35.5-16.3,78.5,7.3,109h34.2c-13.8-9.9-23.7-24.2-28.1-40.8
			c-5.1-19.1-2.5-39,7.4-56.2c6.6-11.5,16.2-20.9,27.6-27.4c11.1-6.3,23.8-9.6,36.6-9.6c12.9,0,25.7,3.4,36.9,9.9
			c17.1,9.9,29.4,25.8,34.5,44.9s2.5,39-7.4,56.2C308.8,286.1,301.8,293.9,293.4,300z M48,324v144h408V324H48z M432,444H72v-96h48
			v48h24v-48h96v48h24v-48h96v48h24v-48h48V444z"/>
	</g>
</g>
</svg>
