<?xml version="1.0" encoding="utf-8"?>
<!-- Generator: Adobe Illustrator 23.0.3, SVG Export Plug-In . SVG Version: 6.00 Build 0)  -->
<svg version="1.1" id="Ebene_1" xmlns="http://www.w3.org/2000/svg" xmlns:xlink="http://www.w3.org/1999/xlink" x="0px" y="0px"
	 viewBox="0 0 504 504" style="enable-background:new 0 0 504 504;" xml:space="preserve">
<g>
	<g>
		<path d="M236.5,236c5.2,1.4,10.4,2.1,15.6,2.1c10.4,0,20.7-2.7,29.9-8.1c28.6-16.5,38.5-53.3,22-82c-16.5-28.6-53.3-38.5-82-22
			c-13.9,8-23.8,21-28,36.4c-4.1,15.5-2,31.6,6,45.5C208.1,222,221,231.9,236.5,236z M217.2,168.8c2.5-9.3,8.4-17,16.8-21.9
			c5.7-3.3,11.8-4.8,17.9-4.8c12.4,0,24.6,6.5,31.2,18c9.9,17.2,4,39.2-13.2,49.2c-8.3,4.8-18,6.1-27.3,3.6
			c-9.3-2.5-17-8.4-21.9-16.8l0,0C216,187.7,214.7,178,217.2,168.8z M236.6,95.5L252,64.3l15.4,31.3c13.4,2.5,26,8.3,36.6,16.7
			l-32.6-66c-4-8.1-11.7-12.1-19.5-12.1s-15.5,4-19.5,12.1L200,112.1c3.1-2.5,6.5-4.7,10-6.8C218.3,100.6,227.3,97.3,236.6,95.5z
			 M473.4,221.2c12.9-12.6,5.8-34.5-12-37.1l-119.9-17.4c-2.3-0.3-4.5-1-6.6-2.1c1.4,8.9,1.4,18,0,26.7c1,0.2,1.9,0.4,2.9,0.5
			l112.4,16.3l-81.3,79.3c-1,0.9-1.8,1.9-2.7,2.9c-16-17-48.4-34-114.2-34c-65.8,0-98.2,17-114.2,34c-0.9-1-1.8-2-2.7-2.9
			l-81.3-79.3l112.4-16.3c1-0.1,1.9-0.3,2.9-0.5c-1.4-8.8-1.4-17.8,0-26.7c-2,1-4.2,1.7-6.5,2L42.6,184.2
			c-17.8,2.6-24.9,24.5-12,37.1l86.8,84.6c5.1,5,7.5,12.2,6.2,19.2l-20.5,119.4c-2.4,14,8.8,25.5,21.4,25.5c3.3,0,6.8-0.8,10.1-2.5
			L241.9,411c3.2-1.7,6.6-2.5,10.1-2.5c3.5,0,6.9,0.8,10.1,2.5l107.2,56.4c3.3,1.8,6.8,2.5,10.1,2.5c12.7,0,23.8-11.4,21.4-25.5
			L380.4,325c-1.2-7,1.1-14.2,6.2-19.2L473.4,221.2z M328.8,417.3v-71.2c0-7.1-5.7-12.8-12.8-12.8s-12.8,5.7-12.8,12.8v57.7
			L274,388.4c-6.7-3.5-14.3-5.4-22-5.4c-7.6,0-15.2,1.9-22,5.4l-29.2,15.4v-57.7c0-7.1-5.7-12.8-12.8-12.8s-12.8,5.7-12.8,12.8v71.2
			l-45.7,24l19.2-112c0.4-2.2,0.6-4.5,0.6-6.7h0.3c0-3.5,1.1-6.9,3.1-9.9c18.9-27.7,75.8-30.7,99.3-30.7c23.6,0,80.4,3,99.3,30.6
			c2,2.9,3.1,6.4,3.1,9.9h0.3c0.1,2.2,0.3,4.5,0.6,6.7l19.2,112L328.8,417.3z"/>
	</g>
</g>
</svg>
