<?xml version="1.0" encoding="utf-8"?>
<!-- Generator: Adobe Illustrator 26.0.3, SVG Export Plug-In . SVG Version: 6.00 Build 0)  -->
<svg version="1.1" id="Ebene_1" xmlns="http://www.w3.org/2000/svg" xmlns:xlink="http://www.w3.org/1999/xlink" x="0px" y="0px"
	 viewBox="0 0 362.85 55.35" style="enable-background:new 0 0 362.85 55.35;" xml:space="preserve">
<style type="text/css">
	.st0{fill:#FEC600;}
	.st1{fill:#FFFFFF;}
</style>
<g>
	<g>
		<g>
			<path class="st0" d="M170.65,0H27.77C12.43,0,0,12.39,0,27.67v0c0,15.28,12.43,27.67,27.77,27.67h142.88
				c15.34,0,27.77-12.39,27.77-27.67v0C198.43,12.39,185.99,0,170.65,0z"/>
			<g>
				<path d="M20.76,41.51V13.84h6.06v10.92h10.7V13.84h6.06v27.67h-6.06V30.37h-10.7v11.14H20.76z"/>
				<path d="M50.07,41.51V13.84h17.58v5.61H56.13v5.42h10.21v5.31H56.13v5.72h11.52v5.61H50.07z"/>
				<path d="M74.12,41.51V13.84h10.7c6.73,0,10.55,3.25,10.55,8.98c0,3.59-1.53,6.13-4.6,7.7l4.86,10.99H89l-4.15-9.69h-4.67v9.69
					H74.12z M80.18,26.51h4.6c2.66,0,4.19-1.35,4.19-3.7c0-2.32-1.46-3.59-4.15-3.59h-4.64V26.51z"/>
				<path d="M112.56,41.96c-8,0-13.5-5.83-13.5-14.29c0-8.45,5.53-14.32,13.54-14.32c8.04,0,13.58,5.83,13.58,14.29
					S120.6,41.96,112.56,41.96z M112.64,19.19c-4.49,0-7.18,3.18-7.18,8.45c0,5.31,2.69,8.49,7.18,8.49c4.45,0,7.14-3.25,7.14-8.49
					C119.78,22.36,117.09,19.19,112.64,19.19z"/>
				<path d="M137.21,35.9h10.92v5.61h-16.98V13.84h6.06V35.9z"/>
				<path d="M153.44,41.51V13.84h10.47c8.12,0,13.76,5.68,13.76,13.91c0,8.08-5.5,13.76-13.39,13.76H153.44z M159.49,19.45V35.9
					h4.19c4.79,0,7.59-3.03,7.59-8.15c0-5.24-2.95-8.3-7.97-8.3H159.49z"/>
			</g>
		</g>
	</g>
	<g>
		<g>
			<g>
				<path d="M210.47,24.28V13.79h3.97c3.08,0,5.22,2.16,5.22,5.27c0,3.06-2.08,5.22-5.08,5.22H210.47z M212.76,15.92v6.24h1.59
					c1.81,0,2.88-1.15,2.88-3.09c0-1.98-1.12-3.15-3.02-3.15H212.76z"/>
				<path d="M223.71,24.28h-2.3V13.79h2.3V24.28z"/>
				<path d="M228.47,19.14c0,2.11,1.19,3.16,2.86,3.16c1.73,0,2.5-0.94,2.59-2.03h-2.78v-2.01h4.93v6.02h-1.97l-0.13-0.95
					c-0.57,0.67-1.7,1.11-2.95,1.11c-2.93,0-4.99-2.16-4.99-5.37c0-3.16,2.11-5.44,5.36-5.44c2.51,0,4.44,1.47,4.68,3.74h-2.41
					c-0.27-1.11-1.23-1.59-2.33-1.59C229.45,15.78,228.47,17.11,228.47,19.14z"/>
				<path d="M241.1,24.28h-2.3V13.79h2.3V24.28z"/>
				<path d="M243.03,13.79h8.25v2.13h-2.98v8.36h-2.3v-8.36h-2.98V13.79z"/>
				<path d="M251.01,24.28l3.74-10.49h2.24l3.73,10.49h-2.44l-0.74-2.21h-3.39l-0.75,2.21H251.01z M254.82,20.14h2.07l-0.75-2.24
					c-0.11-0.35-0.24-0.77-0.28-1.02c-0.04,0.24-0.16,0.64-0.28,1.02L254.82,20.14z"/>
				<path d="M264.89,22.16h4.14v2.13h-6.44V13.79h2.3V22.16z"/>
				<path d="M271.01,24.28V13.79h6.66v2.13h-4.37v2.06h3.87v2.01h-3.87v2.17h4.37v2.13H271.01z"/>
				<path d="M283.59,13.6c2.25,0,3.67,1.25,3.67,3.23h-2.28c0-0.74-0.55-1.19-1.42-1.19c-0.94,0-1.53,0.43-1.53,1.12
					c0,0.64,0.33,0.95,1.06,1.11l1.57,0.33c1.87,0.38,2.76,1.28,2.76,2.93c0,2.03-1.59,3.35-4,3.35c-2.34,0-3.86-1.26-3.86-3.23
					h2.28c0,0.77,0.57,1.19,1.59,1.19c1.03,0,1.69-0.41,1.69-1.08c0-0.58-0.27-0.88-0.96-1.02l-1.6-0.33
					c-1.87-0.38-2.83-1.45-2.83-3.16C279.74,14.94,281.34,13.6,283.59,13.6z"/>
				<path d="M289.75,26.11v-0.78c0.71-0.13,1.22-0.51,1.26-1.09c-0.11,0.06-0.26,0.09-0.41,0.09c-0.67,0-1.18-0.5-1.18-1.12
					c0-0.78,0.48-1.3,1.22-1.3c0.82,0,1.39,0.68,1.39,1.66C292.04,24.92,291.09,25.97,289.75,26.11z"/>
				<path d="M210.15,30.8h2.4l1.38,4.55c0.18,0.62,0.35,1.25,0.52,2.28c0.17-1.04,0.34-1.63,0.52-2.28l1.29-4.55h2.57l1.23,4.55
					c0.17,0.64,0.34,1.28,0.52,2.28c0.21-1.06,0.37-1.64,0.55-2.25l1.4-4.58h2.34l-3.2,10.49h-2.24l-1.91-6.89l-1.97,6.89h-2.25
					L210.15,30.8z"/>
				<path d="M224.58,41.29l3.74-10.49h2.24l3.73,10.49h-2.44l-0.74-2.21h-3.39l-0.75,2.21H224.58z M228.39,37.15h2.07l-0.75-2.24
					c-0.11-0.35-0.24-0.77-0.28-1.02c-0.04,0.24-0.16,0.64-0.28,1.02L228.39,37.15z"/>
				<path d="M239.42,30.6c2.25,0,3.67,1.25,3.67,3.23h-2.28c0-0.74-0.55-1.19-1.42-1.19c-0.94,0-1.53,0.43-1.53,1.12
					c0,0.64,0.33,0.95,1.06,1.11l1.57,0.33c1.87,0.38,2.76,1.28,2.76,2.93c0,2.03-1.59,3.35-4,3.35c-2.34,0-3.86-1.26-3.86-3.23
					h2.28c0,0.77,0.57,1.19,1.59,1.19c1.03,0,1.69-0.41,1.69-1.08c0-0.58-0.27-0.88-0.96-1.02L238.4,37
					c-1.87-0.38-2.83-1.45-2.83-3.16C235.57,31.94,237.17,30.6,239.42,30.6z"/>
				<path d="M250.09,41.29V30.8h3.97c3.08,0,5.22,2.16,5.22,5.27c0,3.06-2.08,5.22-5.08,5.22H250.09z M252.38,32.92v6.24h1.59
					c1.81,0,2.88-1.15,2.88-3.09c0-1.98-1.12-3.15-3.02-3.15H252.38z"/>
				<path d="M261.49,30.8h2.3v6.39c0,1.32,0.72,2.04,2.01,2.04c1.3,0,2.04-0.75,2.04-2.04V30.8h2.3v6.55c0,2.49-1.7,4.11-4.34,4.11
					c-2.62,0-4.31-1.6-4.31-4.11V30.8z"/>
				<path d="M277.55,30.8h4.37c2.11,0,3.39,1.11,3.39,2.91c0,1.12-0.51,1.94-1.46,2.35c1.03,0.34,1.59,1.15,1.59,2.34
					c0,1.86-1.25,2.89-3.51,2.89h-4.37V30.8z M279.85,32.81v2.28h1.83c0.82,0,1.28-0.41,1.28-1.16c0-0.74-0.44-1.12-1.28-1.12
					H279.85z M279.85,37.02v2.25h1.94c0.85,0,1.29-0.38,1.29-1.16c0-0.71-0.45-1.09-1.29-1.09H279.85z"/>
				<path d="M287.83,41.29V30.8h4.05c2.55,0,4,1.23,4,3.4c0,1.36-0.58,2.33-1.74,2.92l1.84,4.17h-2.51l-1.57-3.67h-1.77v3.67H287.83
					z M290.13,35.6h1.74c1.01,0,1.59-0.51,1.59-1.4c0-0.88-0.55-1.36-1.57-1.36h-1.76V35.6z"/>
				<path d="M297.28,41.29l3.74-10.49h2.24l3.73,10.49h-2.44l-0.74-2.21h-3.39l-0.75,2.21H297.28z M301.09,37.15h2.07l-0.75-2.24
					c-0.11-0.35-0.24-0.77-0.28-1.02c-0.04,0.24-0.16,0.64-0.28,1.02L301.09,37.15z"/>
				<path d="M308.15,30.8h2.3v6.39c0,1.32,0.72,2.04,2.01,2.04c1.3,0,2.04-0.75,2.04-2.04V30.8h2.3v6.55c0,2.49-1.7,4.11-4.34,4.11
					c-2.62,0-4.31-1.6-4.31-4.11V30.8z"/>
				<path d="M318.75,36.05c0-3.27,2.08-5.43,5.22-5.43c2.62,0,4.51,1.5,4.83,3.86h-2.42c-0.31-1.05-1.21-1.64-2.47-1.64
					c-1.7,0-2.74,1.21-2.74,3.2c0,1.97,1.05,3.2,2.74,3.2c1.29,0,2.24-0.64,2.52-1.67h2.38c-0.37,2.34-2.33,3.88-4.95,3.88
					C320.71,41.46,318.75,39.37,318.75,36.05z"/>
				<path d="M331.05,41.29V30.8h2.3v4.14h4.05V30.8h2.3v10.49h-2.3v-4.22h-4.05v4.22H331.05z"/>
				<path d="M345.99,30.6c2.25,0,3.67,1.25,3.67,3.23h-2.28c0-0.74-0.55-1.19-1.42-1.19c-0.94,0-1.53,0.43-1.53,1.12
					c0,0.64,0.33,0.95,1.06,1.11l1.57,0.33c1.87,0.38,2.76,1.28,2.76,2.93c0,2.03-1.59,3.35-4,3.35c-2.34,0-3.86-1.26-3.86-3.23
					h2.28c0,0.77,0.57,1.19,1.59,1.19c1.03,0,1.69-0.41,1.69-1.08c0-0.58-0.27-0.88-0.96-1.02l-1.6-0.33
					c-1.87-0.38-2.83-1.45-2.83-3.16C342.13,31.94,343.73,30.6,345.99,30.6z"/>
				<path d="M351.33,30.8h8.25v2.13h-2.98v8.36h-2.3v-8.36h-2.98V30.8z"/>
				<path d="M360.24,40.19c0-0.71,0.58-1.29,1.3-1.29c0.7,0,1.3,0.58,1.3,1.29c0,0.7-0.61,1.28-1.3,1.28
					C360.82,41.47,360.24,40.89,360.24,40.19z"/>
			</g>
		</g>
	</g>
</g>
</svg>
