<?xml version="1.0" encoding="utf-8"?>
<!-- Generator: Adobe Illustrator 23.1.1, SVG Export Plug-In . SVG Version: 6.00 Build 0)  -->
<svg version="1.1" id="Ebene_1" xmlns="http://www.w3.org/2000/svg" xmlns:xlink="http://www.w3.org/1999/xlink" x="0px" y="0px"
	 viewBox="0 0 504 504" style="enable-background:new 0 0 504 504;" xml:space="preserve">
<style type="text/css">
	.st0{fill:#3C4448;}
</style>
<g>
	<g>
		<path class="st0" d="M317.5,459.2c-18.8,0-38.4-6.1-58.3-18.2c-31-18.9-61.5-52.5-85.8-94.6l-35.1-60.7
			c-23.5-40.7-37.1-83.4-38.3-120.2c-0.7-20.2,2.4-38.2,9.2-53.5c7.5-16.9,19.3-30.1,35.1-39.3l45.3-26.2l77.9,134.9l-49.3,28.4
			c-4.5,2.6-5.2,5.2-5.3,7.2c-0.1,1.6,0.3,3.1,0.5,3.7l53.6,92.9c3.1,3.6,7.1,4,11.8,1.3l49.3-28.4L406,421.2l-45.3,26.2
			C347,455.2,332.5,459.2,317.5,459.2z M180.8,79.2l-24.6,14.2c-15.5,8.9-33.6,28.5-32.3,71.2c1.1,32.9,13.5,71.6,35.1,109
			l35.1,60.7c22.4,38.7,49.9,69.3,77.5,86.2c28.3,17.2,54.2,19.3,77,6.2l24.6-14.2l-53.9-93.3l-28.5,16.4
			c-19.4,11.2-36.7,1.2-43.5-8.3l-0.4-0.5l-0.3-0.5l-54.8-95l-0.2-0.6c-4.8-10.7-4.9-30.6,14.6-41.8l28.5-16.4L180.8,79.2z"/>
	</g>
</g>
</svg>
