<?xml version="1.0" encoding="utf-8"?>
<!-- Generator: Adobe Illustrator 25.0.1, SVG Export Plug-In . SVG Version: 6.00 Build 0)  -->
<svg version="1.1" id="Ebene_1" xmlns="http://www.w3.org/2000/svg" xmlns:xlink="http://www.w3.org/1999/xlink" x="0px" y="0px"
	 viewBox="0 0 165.9 165" style="enable-background:new 0 0 165.9 165;" xml:space="preserve">
<style type="text/css">
	.st0{fill:#F5F5F5;}
</style>
<g>
	<path class="st0" d="M87.4,39.5c8.7,0,15.8,7.1,15.8,15.8c0,8.7-7.1,15.8-15.8,15.8c-8.7,0-15.8-7.1-15.8-15.8
		C71.6,46.6,78.7,39.5,87.4,39.5 M87.4,31.5c-13.1,0-23.8,10.6-23.8,23.8S74.3,79,87.4,79s23.8-10.6,23.8-23.8S100.5,31.5,87.4,31.5
		L87.4,31.5z"/>
	<g>
		<path class="st0" d="M83,10.1c39.9,0,72.4,32.5,72.4,72.4c0,38.5-30.2,70.1-68.1,72.3l9-49.9l1.4-7.9l-7.9-1.4l-18.5-3.3l-7.9-1.4
			L62,98.7l-9,49.7c-11-5-20.8-12.8-28.1-22.6c-9.4-12.6-14.4-27.6-14.4-43.4C10.5,42.6,43,10.1,83,10.1 M83,2.1
			c-44.4,0-80.4,36-80.4,80.4c0,36.2,23.9,66.7,56.7,76.9l10.7-59.2l18.5,3.3l-10.7,59.2c1.8,0.1,3.5,0.2,5.3,0.2
			c44.4,0,80.4-36,80.4-80.4S127.4,2.1,83,2.1L83,2.1z"/>
	</g>
</g>
</svg>
