<?xml version="1.0" encoding="utf-8"?>
<!-- Generator: Adobe Illustrator 23.1.1, SVG Export Plug-In . SVG Version: 6.00 Build 0)  -->
<svg version="1.1" id="Ebene_1" xmlns="http://www.w3.org/2000/svg" xmlns:xlink="http://www.w3.org/1999/xlink" x="0px" y="0px"
	 viewBox="0 0 504 504" style="enable-background:new 0 0 504 504;" xml:space="preserve">
<style type="text/css">
	.st0{fill:#ffffff;}
</style>
<g>
	<g>
		<path class="st0" d="M452.6,435.9l-99.1-99.1c47.7-54.6,57.9-135.6,19.7-201.9c-32.3-56-90.9-87.2-151.2-87.2
			c-29.6,0-59.5,7.5-87,23.4C51.7,119.2,23.1,225.8,71.2,309.2c32.3,55.9,90.9,87.2,151.1,87.2c29.6,0,59.5-7.5,87-23.4
			c9.8-5.7,18.9-12.2,27.1-19.3l99.2,99.2c2.3,2.3,5.4,3.5,8.5,3.5s6.1-1.2,8.5-3.5C457.3,448.1,457.3,440.5,452.6,435.9z
			 M297.3,352.2c-22.9,13.2-48.8,20.2-75,20.2c-26,0-51.6-6.7-74.2-19.5c-23.3-13.1-42.7-32.4-56.1-55.7
			c-20.1-34.8-25.4-75.3-15-114.1s35.3-71.2,70-91.3c22.8-13.2,48.8-20.2,75-20.2l0,0c26,0,51.6,6.8,74.2,19.5
			c23.3,13.1,42.7,32.4,56.1,55.7c20.1,34.8,25.4,75.3,15,114.1C357,299.7,332.1,332.1,297.3,352.2z M222.2,116.3
			c-28,0-54.4,10.8-74.3,30.6c-20.1,19.9-31.2,46.3-31.4,74.6c-0.2,28.2,10.7,54.8,30.6,74.9l17.1-16.9
			c-15.3-15.5-23.7-36.1-23.6-57.9c0.1-21.8,8.7-42.3,24.2-57.6s36.1-23.7,57.9-23.6c21.8,0.1,42.3,8.7,57.6,24.2l17.1-16.9
                             c-19.9-20.1-46.3-31.2-74.6-31.4C222.6,116.3,222.4,116.3,222.2,116.3z"></path>
	</g>
</g>
</svg>
