<?xml version="1.0" encoding="utf-8"?>
<!-- Generator: Adobe Illustrator 23.1.1, SVG Export Plug-In . SVG Version: 6.00 Build 0)  -->
<svg version="1.1" id="Ebene_1" xmlns="http://www.w3.org/2000/svg" xmlns:xlink="http://www.w3.org/1999/xlink" x="0px" y="0px"
	 viewBox="0 0 504 504" style="enable-background:new 0 0 504 504;" xml:space="preserve">
<g>
	<path d="M460.5,189.3H440c-4.3-9.8-12.6-27.7-24-46c-23.7-38-48.2-58.3-73-60.3C292,79,212,79,161,83c-24.8,2-49.3,22.3-73,60.3
		c-11.4,18.3-19.8,36.2-24,46H43.5C19.9,189.3,0,208.5,0,231.2c0,11.3,6,22.4,16.4,30.6c5.8,4.6,12.6,7.9,19.6,9.7L36,444
		c0,6.6,5.4,12,12,12h60c6.6,0,12-5.4,12-12v-36h264v36c0,6.6,5.4,12,12,12h60c6.6,0,12-5.4,12-12l0.2-172.6
		c6.9-1.8,13.7-5.1,19.5-9.7c10.4-8.1,16.3-19.3,16.3-30.6C504,208.5,484.1,189.3,460.5,189.3z M163,107c49.1-3.9,129-3.9,178.1,0
		c16.2,1.3,35.5,18.6,54.4,48.7c8.7,14,15.6,27.9,20,37.5C367.2,207.8,314.7,211,252,211c-62.7,0-115.3-3.2-163.5-17.8
		C102.5,162.7,133,109.4,163,107z M96,432H60l0-24h36V432z M408,432v-24h36l0,24H408z M456.2,249c-6.6,0-12,5.4-12,12L444,384H60
		l-0.1-123c0-6.6-5.4-12-12-12c-11.2,0-23.9-9.5-23.9-17.9c0-9.5,9.1-17.9,19.5-17.9H72c0.1,0,0.3,0,0.4,0
		C126,231.2,183.3,235,252,235s126-3.8,179.6-21.7c0.1,0,0.3,0,0.4,0h28.5c10.4,0,19.5,8.4,19.5,17.9C480,239.7,467.5,249,456.2,249
		z"/>
	<polygon points="180,264 192.7,288 312.1,288 324.2,264 	"/>
	<polygon points="218,336 288,336 300.1,312 205.4,312 	"/>
	<path d="M412,261.3c-5.1-4.3-11.7-6.1-18.2-5l-45.3,7.7l-11.6,24l59.1-7.7V312h-31.5h-12.9h-27l-12.3,24H420v-57.5
		C420,271.9,417.1,265.6,412,261.3z"/>
	<path d="M152.9,312H140h-31.5v-31.7l59.1,7.7L156,264l-45.3-7.7c-6.5-1.1-13.2,0.7-18.2,5c-5.1,4.3-8,10.5-8,17.2V336h107.6
		l-12.3-24H152.9z"/>
</g>
</svg>
