<?xml version="1.0" encoding="utf-8"?>
<!-- Generator: Adobe Illustrator 23.1.1, SVG Export Plug-In . SVG Version: 6.00 Build 0)  -->
<svg version="1.1" id="Ebene_1" xmlns="http://www.w3.org/2000/svg" xmlns:xlink="http://www.w3.org/1999/xlink" x="0px" y="0px"
	 viewBox="0 0 504 504" style="enable-background:new 0 0 504 504;" xml:space="preserve">
<g>
	<g>
		<path d="M455.5,456l-24,0V216h23.7l0.8-30.7L276.8,43.4c-0.5-0.4-1.1-0.4-1.6,0L95.5,185.3v42.2h-24v-53.8L260.3,24.6
			c9.2-7.3,22.2-7.3,31.4,0L480,173.7l-0.8,66.3h-23.7L455.5,456z"/>
	</g>
	<polygon points="372,73 372,47.5 408,47.5 408,101.6 432,120.7 432,23.5 348,23.5 348,53.9 	"/>
	<path d="M371.5,360v-72h-60v-72h-132v72h-156v96h36v72h108h24h84h24h108v-96H371.5z M347.5,312v48h-84v-48h48l0,0H347.5z
		 M203.5,240h84v48h-84V240z M155,312h24.5l0,0h60v48H155V312z M47.5,312H131v48H47.5V312z M83.5,432v-48h84v48H83.5z M191.5,432
		v-48h84v48H191.5z M383.5,432h-84v-48h84V432z"/>
</g>
</svg>
