<?xml version="1.0" encoding="utf-8"?>
<!-- Generator: Adobe Illustrator 23.1.1, SVG Export Plug-In . SVG Version: 6.00 Build 0)  -->
<svg version="1.1" id="Ebene_1" xmlns="http://www.w3.org/2000/svg" xmlns:xlink="http://www.w3.org/1999/xlink" x="0px" y="0px"
	 viewBox="0 0 504 504" style="enable-background:new 0 0 504 504;" xml:space="preserve">
<g>
	<path d="M278.9,89.4c-23.2-32-60.8-52.9-103.4-52.9C105.1,36.5,48,93.6,48,164c0,51.9,31,96.5,75.4,116.4L144,431.5h35.5
		c0,9.8-3.3,16.2-10.5,20c-6,3.2-12.6,3.5-13.1,3.5H24v25h132c1.2,0,12.3-0.2,23.6-5.9c16.1-8.1,24.9-23.2,24.9-42.6H240V274
		c15.3-9,28.5-21.1,38.9-35.4L456,215V113L278.9,89.4z M215,406.5h-49.2l-16-117.6c8.3,1.7,16.9,2.6,25.7,2.6
		c13.8,0,27.1-2.2,39.5-6.3V406.5z M275.6,213.8l-10.7,1.4l-6.3,8.7c-9.3,12.9-21.7,23.6-35.7,30.9c-14.7,7.7-30.6,11.6-47.4,11.6
		C119,266.5,73,220.5,73,164S119,61.5,175.5,61.5c16.7,0,32.7,3.9,47.4,11.6c14.1,7.3,26.4,18.1,35.7,30.9l6.3,8.7l10.7,1.4
		L379.7,128v71.9L275.6,213.8z M431,193.1l-26.2,3.5v-65.2l26.2,3.5V193.1z"/>
	<path d="M175.5,91.7c-39.9,0-72.3,32.3-72.3,72.2c0,39.9,32.3,72.2,72.3,72.2c39.9,0,72.2-32.3,72.2-72.2
		C247.7,124.1,215.4,91.7,175.5,91.7z M175.5,211.2c-26.1,0-47.2-21.2-47.2-47.2s21.2-47.2,47.2-47.2s47.2,21.2,47.2,47.2
		S201.6,211.2,175.5,211.2z"/>
</g>
</svg>
