<?xml version="1.0" encoding="utf-8"?>
<!-- Generator: Adobe Illustrator 23.1.1, SVG Export Plug-In . SVG Version: 6.00 Build 0)  -->
<svg version="1.1" id="Ebene_1" xmlns="http://www.w3.org/2000/svg" xmlns:xlink="http://www.w3.org/1999/xlink" x="0px" y="0px"
	 viewBox="0 0 504 504" style="enable-background:new 0 0 504 504;" xml:space="preserve">
<g>
	<path d="M504,167.5L251.6,60L0,167.5l96,46V312c0,22.6,17.8,44.7,48.7,60.6C174.2,387.7,212.3,396,252,396c12.2,0,24.3-0.8,36-2.3
		V390c0-7.4,1.2-14.5,3.5-21.1c-12.8,2-26.1,3.1-39.5,3.1c-74.3,0-132-32.3-132-60v-87l131.5,63l88.5-42.2v104.6
		c-16.3,5.8-28,21.3-28,39.6v36c0,23.2,18.8,42,42,42s42-18.8,42-42v-36c0-19.7-13.7-36.3-32-40.8V234.3l20-9.5V312
		c0,5.3-2.2,10.9-6.3,16.4c7.6,2.9,14.5,7.2,20.4,12.6c6.4-9.2,9.9-19.1,9.9-29v-98.6L504,167.5z M372,390v36c0,9.9-8.1,18-18,18
		s-18-8.1-18-18v-36c0-9.9,8.1-18,18-18S372,380.1,372,390z M58.2,168.8l193.4-82.7l194.1,82.7l-94.9,45.3l-109.5-52.9
		c-6-2.9-13.1-0.4-16,5.6c-2.9,6-0.4,13.1,5.6,16l92.2,44.5l-71.4,34.1L58.2,168.8z"/>
</g>
</svg>
