<?xml version="1.0" encoding="utf-8"?>
<!-- Generator: Adobe Illustrator 23.1.1, SVG Export Plug-In . SVG Version: 6.00 Build 0)  -->
<svg version="1.1" id="Ebene_1" xmlns="http://www.w3.org/2000/svg" xmlns:xlink="http://www.w3.org/1999/xlink" x="0px" y="0px"
	 viewBox="0 0 504 504" style="enable-background:new 0 0 504 504;" xml:space="preserve">
<g>
	<path d="M432,132.3h-60v24h60c12.8,0,23.1,10.4,23.1,23.1V252H300v-24.5c0-6.6-5.4-12-12-12h-72c-6.6,0-12,5.4-12,12V252H48.9
		v-72.5c0-12.8,10.4-23.1,23.1-23.1h60v-24H72c-26,0-47.1,21.1-47.1,47.1v228.9c0,26,21.1,47.1,47.1,47.1h360
		c26,0,47.1-21.1,47.1-47.1V179.5C479.1,153.5,458,132.3,432,132.3z M228,239.5h48v72h-48V239.5z M432,431.5H72
		c-12.8,0-23.1-10.4-23.1-23.1V276H204v47.5c0,6.6,5.4,12,12,12h72c6.6,0,12-5.4,12-12V276h155.1v132.3
		C455.1,421.1,444.8,431.5,432,431.5z"/>
	<path d="M348,132.3h-24v-13.7c0-26-21.1-47.1-47.1-47.1h-49.7c-26,0-47.1,21.1-47.1,47.1v13.7h-24v24h192V132.3z M204,118.6
		c0-12.8,10.4-23.1,23.1-23.1h49.7c12.8,0,23.1,10.4,23.1,23.1v13.7h-96V118.6z"/>
</g>
</svg>
