<?xml version="1.0" encoding="utf-8"?>
<!-- Generator: Adobe Illustrator 23.1.1, SVG Export Plug-In . SVG Version: 6.00 Build 0)  -->
<svg version="1.1" id="Ebene_1" xmlns="http://www.w3.org/2000/svg" xmlns:xlink="http://www.w3.org/1999/xlink" x="0px" y="0px"
	 viewBox="0 0 504 504" style="enable-background:new 0 0 504 504;" xml:space="preserve">
<g>
	<path d="M456,288.5h-24h-60v-58c0-8.2-2.4-16.1-7.1-22.8c-12.2-17.9-41.7-39.2-112.9-39.2c-71.2,0-100.7,21.3-112.9,39.2
		c-4.6,6.8-7.1,14.6-7.1,22.8v58H72H48v24h24v168h360v-168h24V288.5z M156,230.5c0-3.3,1-6.5,2.9-9.3c15-22,55.6-27.4,81.1-28.5
		v71.8c0,6.6,5.4,12,12,12s12-5.4,12-12v-71.8c25.5,1.1,66.1,6.5,81.1,28.5c1.9,2.8,2.9,6,2.9,9.3v58h-24v-36c0-6.6-5.4-12-12-12
		s-12,5.4-12,12v36h-96v-36c0-6.6-5.4-12-12-12s-12,5.4-12,12v36h-24V230.5z M408,456.5H96v-144h312V456.5z"/>
	<path d="M200,114.5c8,13.9,21,23.8,36.4,28c5.2,1.4,10.4,2.1,15.6,2.1c10.4,0,20.7-2.7,29.9-8.1c13.9-8,23.8-21,28-36.4
		c4.1-15.5,2-31.6-6-45.5c-16.5-28.6-53.3-38.5-82-22c-13.9,8-23.8,21-28,36.4C189.9,84.5,192,100.6,200,114.5L200,114.5z
		 M217.2,75.2c2.5-9.3,8.4-17,16.8-21.9c5.7-3.3,11.8-4.8,17.9-4.8c12.4,0,24.6,6.5,31.2,18c9.9,17.2,4,39.2-13.2,49.2
		c-8.3,4.8-18,6.1-27.3,3.6c-9.3-2.5-17-8.4-21.9-16.8h0C216,94.2,214.7,84.5,217.2,75.2z"/>
</g>
</svg>
