<?xml version="1.0" encoding="utf-8"?>
<!-- Generator: Adobe Illustrator 23.1.1, SVG Export Plug-In . SVG Version: 6.00 Build 0)  -->
<svg version="1.1" id="Ebene_1" xmlns="http://www.w3.org/2000/svg" xmlns:xlink="http://www.w3.org/1999/xlink" x="0px" y="0px"
	 viewBox="0 0 504 504" style="enable-background:new 0 0 504 504;" xml:space="preserve">
<g>
	<path d="M168,84c-6.6,0-12,5.4-12,12s5.4,12,12,12h228V84H168z"/>
	<path d="M420,36H144c-33.1,0-60,26.9-60,60v324c0,26.5,21.5,48,48,48h288V132H144c-19.9,0-36-16.1-36-36s16.1-36,36-36h276V36z
		 M324,156v110.8l-41.8-25.1c-3.8-2.3-8.5-2.3-12.3,0L228,266.8V156H324z M144,156h60v132c0,4.3,2.3,8.3,6.1,10.4
		c3.8,2.1,8.4,2.1,12.1-0.2L276,266l53.8,32.3c1.9,1.1,4,1.7,6.2,1.7c2,0,4.1-0.5,5.9-1.6c3.8-2.1,6.1-6.1,6.1-10.4V156h48v288H132
		c-13.2,0-24-10.8-24-24V144C118,151.5,130.5,156,144,156z"/>
</g>
</svg>
