<?xml version="1.0" encoding="utf-8"?>
<!-- Generator: Adobe Illustrator 23.1.1, SVG Export Plug-In . SVG Version: 6.00 Build 0)  -->
<svg version="1.1" id="Ebene_1" xmlns="http://www.w3.org/2000/svg" xmlns:xlink="http://www.w3.org/1999/xlink" x="0px" y="0px"
	 viewBox="0 0 504 504" style="enable-background:new 0 0 504 504;" xml:space="preserve">
<g>
	<path d="M128.5,273.9c5.2,1.4,10.4,2.1,15.6,2.1c10.4,0,20.7-2.7,29.9-8.1c28.6-16.5,38.5-53.3,22-82c-16.5-28.6-53.3-38.5-82-22
		c-13.9,8-23.8,21-28,36.4c-4.1,15.5-2,31.6,6,45.5C100.1,259.9,113,269.8,128.5,273.9z M109.2,206.7c2.5-9.3,8.4-17,16.8-21.9
		c5.7-3.3,11.8-4.8,17.9-4.8c12.4,0,24.6,6.5,31.2,18c9.9,17.2,4,39.2-13.2,49.2c-8.3,4.8-18,6.1-27.3,3.6
		c-9.3-2.5-17-8.4-21.9-16.8l0,0C108,225.7,106.7,216,109.2,206.7z"/>
	<path d="M156,36v97c8.6,1.4,16.6,4.2,24,8.1V60h264v384H288v24h180V36H156z"/>
	<g>
		<path d="M259.7,257.6v-2.9h24.4v1.8c0,10.5,7.6,17.7,21.8,17.7c11.5,0,20.3-4.7,20.3-14.2c0-7.4-4.3-10.3-11.5-12.7l-33.5-11.7
			c-15.8-5.5-25.9-14.8-25.9-31.6c0-12.1,6.8-21.8,14.2-28.1c-4.5-4.7-7-10.9-7-19.9c0-22.8,18.1-35.9,44.8-35.9
			c29.4,0,45.6,14.2,45.6,37.2v2.5h-24V157c0-9.9-6.4-16.6-20.9-16.6c-12.5,0-19.9,4.7-19.9,14c0,7.2,3.9,10.1,11.5,12.9l32.7,11.9
			c17.5,6.4,26.5,15.2,26.5,31.4c0,11.3-6,21.6-13.1,29c3.9,4.7,6.2,10.7,6.2,19.1c0,20.3-18.1,35.9-45.8,35.9
			C278.8,294.5,259.7,281,259.7,257.6z M327,228c3.5-4.1,6.2-9.2,6.2-14.8c0-6.2-3.5-10.7-11.5-13.8l-33.9-12.5
			c-3.7,3.9-7,8.4-7,14.4c0,7,3.3,11.1,11.1,14L327,228z"/>
	</g>
	<g>
		<path d="M48,468V362c0-3.3,1-6.5,2.9-9.3c17.7-26,71-28.8,93.1-28.8c22.1,0,75.4,2.8,93.1,28.7c1.9,2.8,2.9,6,2.9,9.3v106h24V362
			c0-8.2-2.4-16.1-7.1-22.8C244.7,321.3,215.2,300,144,300c-71.2,0-100.7,21.3-112.9,39.2C26.4,346,24,353.9,24,362v106H48z"/>
		<path d="M84,372c-6.6,0-12,5.4-12,12v84h24v-84C96,377.4,90.6,372,84,372z"/>
		<path d="M204,372c-6.6,0-12,5.4-12,12v84h24v-84C216,377.4,210.6,372,204,372z"/>
	</g>
</g>
</svg>
