<?xml version="1.0" encoding="utf-8"?>
<!-- Generator: Adobe Illustrator 23.1.1, SVG Export Plug-In . SVG Version: 6.00 Build 0)  -->
<svg version="1.1" id="Ebene_1" xmlns="http://www.w3.org/2000/svg" xmlns:xlink="http://www.w3.org/1999/xlink" x="0px" y="0px"
	 viewBox="0 0 504 504" style="enable-background:new 0 0 504 504;" xml:space="preserve">
<g>
	<path d="M364,216c-6.6,0-12,5.4-12,12c0,55.1-44.9,100-100,100s-100-44.9-100-100c0-6.6-5.4-12-12-12s-12,5.4-12,12
		c0,68.4,55.6,124,124,124s124-55.6,124-124C376,221.4,370.6,216,364,216z"/>
	<path d="M375.9,168C373.8,101.5,319,48,252,48s-121.8,53.5-123.9,120H48v244.9c0,30.4,24.7,55.1,55.1,55.1h297.8
		c30.4,0,55.1-24.7,55.1-55.1V168H375.9z M252,72c53.8,0,97.8,42.7,99.9,96H152.1C154.2,114.7,198.2,72,252,72z M432,412.9
		c0,17.1-14,31.1-31.1,31.1H103.1C86,444,72,430,72,412.9V192h56h248h56V412.9z"/>
</g>
</svg>
