<?xml version="1.0" encoding="utf-8"?>
<!-- Generator: Adobe Illustrator 23.1.1, SVG Export Plug-In . SVG Version: 6.00 Build 0)  -->
<svg version="1.1" id="Ebene_1" xmlns="http://www.w3.org/2000/svg" xmlns:xlink="http://www.w3.org/1999/xlink" x="0px" y="0px"
	 viewBox="0 0 504 504" style="enable-background:new 0 0 504 504;" xml:space="preserve">
<g>
	<path d="M324.1,120.5c8.1,0,16.4-2.1,23.9-6.4c22.9-13.2,30.8-42.6,17.6-65.6c-13.2-22.9-42.6-30.8-65.6-17.6
		c-11.1,6.4-19,16.8-22.4,29.1c-3.3,12.4-1.6,25.3,4.8,36.4C291.3,111.9,307.5,120.5,324.1,120.5z M300.8,66.3
		c1.7-6.2,5.6-11.4,11.2-14.6c3.8-2.2,7.9-3.2,12-3.2c8.3,0,16.4,4.3,20.8,12c6.6,11.5,2.7,26.2-8.8,32.8
		c-11.5,6.6-26.2,2.7-32.8-8.8C300,79,299.2,72.5,300.8,66.3z"/>
	<path d="M114,300.5c-49.7,0-90,40.3-90,90s40.3,90,90,90s90-40.3,90-90S163.7,300.5,114,300.5z M114,456.5c-36.4,0-66-29.6-66-66
		s29.6-66,66-66s66,29.6,66,66S150.4,456.5,114,456.5z"/>
	<path d="M324,297.6v-25.1c0-4.3-2.3-8.3-6.1-10.4l-76-43l24.9-18.5l-15.7-18.3l-38.4,28.6c-3.2,2.4-5,6.3-4.8,10.4
		c0.3,4,2.5,7.7,6.1,9.7l85.9,48.6v41.1C306.8,311.8,314.9,304.1,324,297.6z"/>
	<path d="M478.6,374.6c-0.4-2.2-0.9-4.4-1.4-6.6c-0.4-1.4-0.8-2.9-1.2-4.3c-1.3-4.2-2.9-8.3-4.8-12.3c-0.6-1.3-1.3-2.6-2-3.9
		c-0.7-1.3-1.4-2.5-2.2-3.8s-1.5-2.5-2.3-3.7c-2-3-4.2-5.9-6.6-8.6c-0.9-1.1-1.9-2.2-2.9-3.2s-2-2.1-3.1-3.1s-2.1-2-3.2-2.9
		c-1.1-0.9-2.2-1.9-3.3-2.8c-1.1-0.9-2.3-1.8-3.5-2.6s-2.4-1.6-3.6-2.4c-2.4-1.6-4.9-3-7.5-4.3c-1.3-0.7-2.6-1.3-3.9-1.9
		c-11.3-5.1-23.8-8-37-8s-25.7,2.8-37,8c-1.3,0.6-2.6,1.2-3.9,1.9c-2.6,1.3-5.1,2.8-7.5,4.3c-1.2,0.8-2.4,1.6-3.6,2.4
		s-2.3,1.7-3.5,2.6c-1.1,0.9-2.2,1.8-3.3,2.8c-1.1,0.9-2.2,1.9-3.2,2.9s-2.1,2-3.1,3.1s-2,2.1-2.9,3.2c-2.4,2.7-4.6,5.6-6.6,8.6
		c-0.8,1.2-1.6,2.4-2.3,3.7s-1.5,2.5-2.2,3.8c-0.7,1.3-1.4,2.6-2,3.9c-1.9,3.9-3.5,8-4.8,12.3c-0.4,1.4-0.8,2.8-1.2,4.3
		c-0.6,2.2-1,4.3-1.4,6.6c-0.9,5.2-1.4,10.5-1.4,15.9c0,4.7,0.4,9.2,1,13.7c0.2,1.5,0.5,3,0.8,4.4c0.1,0.7,0.3,1.5,0.5,2.2
		c0.3,1.5,0.7,2.9,1.1,4.3c1.2,4.3,2.7,8.4,4.5,12.4c1.2,2.7,2.5,5.2,4,7.8c0.4,0.6,0.7,1.3,1.1,1.9c1.9,3.1,3.9,6.1,6.2,8.9
		c0.4,0.6,0.9,1.1,1.4,1.7c3.7,4.4,7.8,8.5,12.2,12.2c1.1,0.9,2.2,1.8,3.4,2.7s2.3,1.7,3.5,2.5s2.4,1.6,3.7,2.3
		c1.9,1.1,3.8,2.2,5.7,3.2s3.9,1.9,5.9,2.8c1.3,0.6,2.7,1.1,4.1,1.6c9.6,3.5,20.1,5.5,30.9,5.5s21.3-1.9,30.9-5.5
		c1.4-0.5,2.7-1,4.1-1.6c2-0.9,4-1.8,5.9-2.8s3.8-2.1,5.7-3.2c1.2-0.8,2.5-1.5,3.7-2.3s2.4-1.6,3.5-2.5s2.3-1.8,3.4-2.7
		c4.4-3.7,8.5-7.8,12.2-12.2c0.5-0.6,0.9-1.1,1.4-1.7c2.2-2.8,4.3-5.8,6.2-8.9c0.4-0.6,0.7-1.2,1.1-1.9c1.4-2.5,2.8-5.1,4-7.8
		c1.8-4,3.3-8.1,4.5-12.4c0.4-1.4,0.8-2.9,1.1-4.3c0.2-0.7,0.3-1.5,0.5-2.2c0.3-1.5,0.6-2.9,0.8-4.4c0.7-4.5,1-9,1-13.7
		C480,385.1,479.5,379.7,478.6,374.6z M453,410.1c-0.6,2.1-1.4,4.1-2.2,6.1c-0.4,1-0.9,2-1.3,2.9c-0.9,1.9-1.9,3.8-3.1,5.6
		s-2.3,3.6-3.6,5.3c-2.5,3.4-5.4,6.5-8.5,9.4c-0.8,0.7-1.6,1.4-2.4,2.1c-2.4,2-5,3.9-7.8,5.5c-10,6.1-21.7,9.6-34.2,9.6
		s-24.2-3.5-34.2-9.6c-2.7-1.7-5.3-3.5-7.8-5.5c-0.8-0.7-1.6-1.4-2.4-2.1c-3.1-2.8-6-6-8.5-9.4c-1.3-1.7-2.5-3.5-3.6-5.3
		s-2.1-3.7-3.1-5.6c-0.5-1-0.9-1.9-1.3-2.9c-0.8-2-1.6-4-2.2-6.1c-1.9-6.2-3-12.8-3-19.6s1-13.4,3-19.6c0.6-2.1,1.4-4.1,2.2-6.1
		c0.4-1,0.9-2,1.3-2.9c0.9-1.9,1.9-3.8,3.1-5.6s2.3-3.6,3.6-5.3c2.5-3.4,5.4-6.5,8.5-9.4c0.8-0.7,1.6-1.4,2.4-2.1
		c2.4-2,5-3.9,7.8-5.5c10-6.1,21.7-9.6,34.2-9.6s24.2,3.5,34.2,9.6c2.7,1.7,5.3,3.5,7.8,5.5c0.8,0.7,1.6,1.4,2.4,2.1
		c3.1,2.8,6,6,8.5,9.4c1.3,1.7,2.5,3.5,3.6,5.3s2.1,3.7,3.1,5.6c0.5,1,0.9,1.9,1.3,2.9c0.8,2,1.6,4,2.2,6.1c1.9,6.2,3,12.8,3,19.6
		S455,403.9,453,410.1z"/>
	<path d="M257.7,290l-115.3-62.9l107.7-78.3l64.8,75.6c2.3,2.7,5.6,4.2,9.1,4.2h96c6.6,0,12-5.4,12-12s-5.4-12-12-12h-90.5
		l-68.4-79.8c-4.1-4.8-11.1-5.6-16.2-1.9l-132,96c-3.3,2.4-5.2,6.4-4.9,10.5s2.6,7.8,6.2,9.8L240,307.6v124.9c0,6.6,5.4,12,12,12
		s12-5.4,12-12v-132C264,296.1,261.6,292.1,257.7,290z"/>
</g>
</svg>
