<?xml version="1.0" encoding="UTF-8"?><svg id="a" xmlns="http://www.w3.org/2000/svg" viewBox="0 0 50 170"><defs><style>.b{fill:#fec600;}</style></defs><path class="b" d="M25,0h25V170H25C11.2,170,0,158.8,0,145V25C0,11.2,11.2,0,25,0Z"/><g><rect x="20.24" y="24.6" width="7.52" height="1.5"/><rect x="20.24" y="33.62" width="9.77" height="1.5"/><rect x="21.74" y="29.11" width="13.53" height="1.5"/><path d="M27.05,38.9l-.45,.54-2.6,3.11-2.61-3.11-.45-.54h-3.71V20.84h21.05v18.06h-11.23ZM15.73,19.34v21.06h4.51l3.76,4.49,3.76-4.49h12.03V19.34H15.73Z"/><polygon points="14.23 34.39 12.72 34.39 12.72 16.33 14.23 16.33 33.77 16.33 35.27 16.33 35.27 14.83 11.22 14.83 11.22 35.89 14.23 35.89 14.23 34.39"/><g><path d="M25.31,153.93l-4.25-3.2v-2.29l3.79,2.9,5.08-2.93v2.24l-3.43,1.96,1.73,1.32h1.7v1.94h-8.87v-1.94h4.25Z"/><path d="M29.94,148.18l-8.87-3.17v-1.89l8.87-3.15v2.06l-1.87,.62v2.87l1.87,.64v2.03Zm-3.5-3.23v-1.75l-1.9,.64c-.3,.1-.65,.2-.86,.24,.2,.04,.54,.13,.86,.24l1.9,.64Z"/><path d="M29.94,138.93h-8.87v-3.43c0-2.16,1.04-3.38,2.88-3.38,1.15,0,1.97,.49,2.47,1.48l3.53-1.56v2.12l-3.11,1.33v1.5h3.11v1.94Zm-4.81-1.94v-1.48c0-.85-.43-1.34-1.19-1.34s-1.15,.47-1.15,1.33v1.49h2.34Z"/><path d="M29.94,130.67h-8.87v-3.43c0-2.16,1.04-3.38,2.88-3.38,1.15,0,1.97,.49,2.47,1.48l3.53-1.56v2.12l-3.11,1.33v1.5h3.11v1.94Zm-4.81-1.94v-1.48c0-.85-.43-1.34-1.19-1.34s-1.15,.47-1.15,1.33v1.49h2.34Z"/><path d="M29.94,120.47v1.94h-8.87v-1.94h8.87Z"/><path d="M29.94,118.63h-8.87v-5.64h1.8v3.69h1.74v-3.27h1.7v3.27h1.83v-3.69h1.8v5.64Z"/><path d="M29.94,111.39h-8.87v-3.43c0-2.16,1.04-3.38,2.88-3.38,1.15,0,1.97,.49,2.47,1.48l3.53-1.56v2.12l-3.11,1.33v1.5h3.11v1.94Zm-4.81-1.94v-1.48c0-.85-.43-1.34-1.19-1.34s-1.15,.47-1.15,1.33v1.49h2.34Z"/><path d="M29.94,103.13h-8.87v-5.64h1.8v3.69h1.74v-3.27h1.7v3.27h1.83v-3.69h1.8v5.64Z"/><path d="M25.88,96.1v-4.1h1.63v4.1h-1.63Z"/><path d="M25.51,90.85c-2.77,0-4.59-1.76-4.59-4.41,0-2.22,1.27-3.81,3.26-4.09v2.05c-.89,.26-1.39,1.02-1.39,2.09,0,1.44,1.02,2.31,2.71,2.31s2.71-.89,2.71-2.31c0-1.09-.54-1.9-1.42-2.13v-2.02c1.98,.31,3.29,1.97,3.29,4.19,0,2.66-1.76,4.33-4.57,4.33Z"/><path d="M29.94,81.03h-8.87v-1.94h3.5v-3.43h-3.5v-1.94h8.87v1.94h-3.57v3.43h3.57v1.94Z"/><path d="M29.94,72.68l-8.87-3.17v-1.89l8.87-3.15v2.06l-1.87,.62v2.87l1.87,.64v2.03Zm-3.5-3.23v-1.75l-1.9,.64c-.3,.1-.65,.2-.86,.24,.2,.04,.54,.13,.86,.24l1.9,.64Z"/><path d="M21.06,64.89v-6.98h1.8v2.52h7.08v1.94h-7.08v2.52h-1.8Z"/></g></g></svg>