<?xml version="1.0" encoding="utf-8"?>
<!-- Generator: Adobe Illustrator 26.1.0, SVG Export Plug-In . SVG Version: 6.00 Build 0)  -->
<svg version="1.1" id="a" xmlns="http://www.w3.org/2000/svg" xmlns:xlink="http://www.w3.org/1999/xlink" x="0px" y="0px"
	 viewBox="0 0 243.4 243.4" style="enable-background:new 0 0 243.4 243.4;" xml:space="preserve">
<style type="text/css">
	.st0{fill:#1D1D1B;}
</style>
<path class="st0" d="M186.5,0H56.9C25.5,0,0,25.5,0,56.9v129.6c0,31.4,25.5,56.9,56.9,56.9h129.6c31.4,0,56.9-25.5,56.9-56.9V56.9
	C243.4,25.5,217.9,0,186.5,0z M135.2,166.5c-11.2,0-21.7-6.1-25.4-12.9c-0.1,0.2-6,24-7.3,28.6c-2,7.2-14.5,19.8-18.1,25.7
	c-4.6-1.3-4.5-24.6-2.8-31.8c2-8.4,13.4-56.6,13.4-56.6s-3.3-6.7-3.3-16.5c0-15.4,8.9-26.9,20-26.9c9.5,0,14,7.1,14,15.6
	c0,9.5-6.1,23.7-9.2,36.9c-2.6,11,5.5,20,16.4,20c19.7,0,33-25.3,33-55.3c0-22.8-15.3-39.8-43.3-39.8c-31.5,0-51.2,23.5-51.2,49.8
	c0,9.1,2.7,15.4,6.8,20.4c1.9,2.3,2.2,3.2,1.5,5.8c-0.5,1.9-1.6,6.5-2.1,8.3c-0.7,2.6-2.8,3.6-5.2,2.6
	c-14.5-5.9-21.3-21.8-21.3-39.7c0-29.5,24.9-65,74.3-65c39.7,0,65.8,28.8,65.8,59.6C191.3,136,168.6,166.5,135.2,166.5z"/>
</svg>
